<svg width="183" height="80" viewBox="0 0 183 80" fill="none" xmlns="http://www.w3.org/2000/svg">
<path d="M84.1374 7.76C88.179 15.663 87.445 21.6523 82.2534 26.1877C78.0712 29.8414 70.8359 30.2552 66.1214 27.1107C59.4002 22.6282 58.044 13.8304 63.0881 7.43949C68.2946 0.843559 76.5142 0.810215 84.1374 7.76Z" fill="#A982D7"/>
<path d="M158.195 83.8156C152.271 77.5104 150.925 72.1389 154.017 66.695C156.896 61.6253 161.355 58.6621 167.332 59.4814C173.729 60.3578 177.751 64.2748 179.147 70.6486C180.287 75.8539 178.15 80.0758 174.314 83.1971C169.475 87.1358 164.022 86.8454 158.195 83.8156Z" fill="#A982D7"/>
<path d="M33.498 17.509C39.4772 11.1119 44.9173 10.2068 50.0346 14.3731C54.4939 18.0038 55.5589 24.1172 52.5485 28.8059C49.4184 33.6813 43.5561 35.4582 38.5325 33.0536C32.7973 30.3088 30.8644 24.7929 33.498 17.509Z" fill="#A982D7"/>
<path d="M12.4854 76.2725C14.4512 68.2808 18.7224 64.3653 24.5661 65.0581C30.0061 65.7032 33.7548 68.7887 34.708 74.2414C35.6706 79.7494 33.0629 83.8489 28.0778 86.1364C22.8955 88.5143 18.4147 87.0468 15.1173 82.5475C13.8978 80.8834 13.365 78.7163 12.4854 76.2725Z" fill="#A982D7"/>
<path d="M106.511 33.9678C100.079 34.4738 95.9679 31.8026 94.1262 26.3266C92.6603 21.9668 93.7074 17.8312 97.3264 14.6881C101.882 10.7309 108.709 11.21 112.88 15.6962C117.13 20.2675 116.824 26.8445 111.967 31.0682C110.563 32.2899 108.69 32.9721 106.511 33.9678Z" fill="#A982D7"/>
<path d="M148.313 44.7267C147.441 38.854 149.819 35.0033 154.371 32.5756C158.289 30.4854 162.304 30.9557 165.878 33.5953C171.211 37.5321 171.873 44.5045 167.5 49.3677C163.076 54.2865 156.171 54.6603 151.567 50.0315C150.249 48.7065 149.472 46.8439 148.313 44.7267Z" fill="#A982D7"/>
<path d="M40.837 46.4727C47.6794 49.7205 49.5798 54.0083 46.6784 58.5536C44.2163 62.4116 39.1108 63.4103 35.4185 60.6975C32.9674 58.897 31.8004 56.3884 32.3197 53.402C33.0835 49.0102 35.9468 46.787 40.837 46.4727Z" fill="#A982D7"/>
<path d="M134.221 41.0253C130.094 47.4223 124.73 48.7918 120.982 44.7304C118.445 41.9821 117.531 38.7492 119.687 35.2944C121.57 32.276 124.351 30.7563 127.893 31.5676C132.533 32.6308 134.78 35.6606 134.221 41.0253Z" fill="#A982D7"/>
<path d="M138.854 26.8777C135.026 23.7563 133.938 20.3002 136.017 16.3066C137.668 13.1362 140.472 11.7461 144.062 12.3373C147.65 12.9281 149.754 15.236 150.555 18.6452C151.961 24.6252 147.238 28.1664 138.854 26.8777Z" fill="#A982D7"/>
<path d="M15.0687 34.1122C19.0389 30.7553 22.8027 30.3373 26.3626 33.6194C29.2368 36.269 29.3846 39.7619 27.7641 43.0486C26.0335 46.5582 22.7445 47.5688 19.0592 46.8112C13.8249 45.7355 12.3496 41.3867 15.0687 34.1122Z" fill="#A982D7"/>
<path d="M128.888 8.83483C126.923 12.0825 124.587 12.9481 121.717 11.0859C119.962 9.9469 119.219 8.13774 119.822 6.09926C120.49 3.84132 122.178 2.37444 124.537 2.63826C127.724 2.99467 129.418 4.95019 128.888 8.83483Z" fill="#A982D7"/>
<path d="M142.917 57.0928C141.492 61.8279 138.961 64.0717 135.008 60.4504C132.845 58.4696 133.139 55.447 135.747 53.7626C139.087 51.6054 141.391 53.345 142.917 57.0928Z" fill="#A982D7"/>
<path d="M11.0873 61.0999C7.88351 62.9465 5.7156 62.1364 4.34371 59.4137C3.24714 57.237 3.88858 55.2238 5.81319 53.7644C7.52207 52.4687 9.48677 52.3784 11.1248 53.7262C13.7287 55.869 13.8284 58.3558 11.0873 61.0999Z" fill="#A982D7"/>
<path d="M61.6169 39.2702C63.9833 42.1655 63.4883 44.4497 60.9744 46.1831C58.986 47.5546 56.8959 47.2829 55.2009 45.4686C53.9525 44.1322 53.3222 42.5237 54.2894 40.7922C55.934 37.8473 58.2829 37.1366 61.6169 39.2702Z" fill="#A982D7"/>
<path d="M113.575 3.73372C112.017 6.86822 110.091 7.42085 108.016 5.05084C106.698 3.5449 107.014 1.62878 108.687 0.670698C111.338 -0.846902 113.093 0.226334 113.575 3.73372Z" fill="#A982D7"/>
<path d="M75.4029 36.7664C75.9963 40.2391 74.6644 41.9128 71.6304 41.2356C69.7921 40.8256 68.7728 38.9519 69.5829 37.1494C70.8587 34.3116 72.9268 34.1028 75.4029 36.7664Z" fill="#A982D7"/>
<path d="M4.40283 68.6382C7.20292 70.2657 8.27459 72.1333 5.78002 74.2597C4.26297 75.5527 2.36655 75.0897 1.43206 73.4423C-0.0353556 70.8556 0.810033 69.0238 4.40283 68.6382Z" fill="#A982D7"/>
<path d="M143.067 74.8803C139.822 74.2332 138.537 72.6331 140.184 69.9569C141.189 68.324 143.012 67.9041 144.482 69.3053C146.694 71.413 146.135 73.3495 143.067 74.8803Z" fill="#A982D7"/>
</svg>
