<svg width="121" height="60" viewBox="0 0 121 60" fill="none" xmlns="http://www.w3.org/2000/svg">
<path d="M76.9976 56.8863C70.4402 59.1499 65.4332 57.0876 63.8762 51.7839C62.3479 46.5777 65.3796 41.4536 70.6762 40.2911C74.5138 39.4487 78.4672 41.3746 80.3616 45.0098C82.5309 49.1718 81.5559 52.8676 76.9976 56.8863Z" fill="#A982D7"/>
<path d="M6.01115 18.8983C1.8226 14.8473 0.867053 11.4032 2.93965 7.64566C4.92089 4.05372 7.99294 2.24391 12.2107 2.79721C16.0606 3.302 19.1119 6.42371 19.7396 10.5725C20.2405 13.8832 18.8367 16.494 16.3248 18.4512C13.1869 20.8966 9.78014 21.1512 6.01115 18.8983Z" fill="#A982D7"/>
<path d="M16.9104 24.6787C21.6093 26.7862 23.5404 29.678 22.6273 33.2877C21.7284 36.8416 19.2746 39.0637 15.6488 39.2499C11.7526 39.4501 9.19975 37.1967 8.12294 33.5039C6.71068 28.6606 10.5494 24.6705 16.9104 24.6787Z" fill="#A982D7"/>
<path d="M109.179 15.7248C103.702 17.3637 100.017 15.7431 98.5542 11.3423C97.3477 7.71251 99.3155 3.81115 103.082 2.3664C106.429 1.08246 110.139 2.40857 111.952 5.53738C114.134 9.30004 113.479 11.9426 109.179 15.7248Z" fill="#A982D7"/>
<path d="M53.112 51.8919C49.2983 52.2915 46.5066 50.9824 45.0974 47.7926C43.9646 45.228 43.9611 42.4297 46.0615 40.1606C48.1177 37.9395 50.597 36.5956 53.7148 37.6705C56.7959 38.7324 58.8094 40.7792 58.9893 44.2213C59.1996 48.2486 57.1818 50.6605 53.112 51.8919Z" fill="#A982D7"/>
<path d="M94.394 51.7604C88.8957 51.865 85.6473 49.3807 85.2845 45.1379C84.9916 41.7127 87.8239 38.204 91.4783 37.4645C95.0609 36.7395 98.8408 39.2494 99.9713 43.1041C100.991 46.5812 99.1899 49.5106 94.394 51.7604Z" fill="#A982D7"/>
<path d="M41.614 36.5236C39.4602 39.3074 37.0141 39.9423 34.3286 38.1944C32.2495 36.8414 31.2793 34.7127 32.1257 32.2615C33.1625 29.2587 35.4763 28.0868 38.5439 28.8123C41.7253 29.5648 42.853 32.296 41.614 36.5236Z" fill="#A982D7"/>
<path d="M29.1693 50.8993C26.1213 52.1096 23.5184 52.1248 21.8073 49.2922C20.5161 47.1547 20.5566 44.8418 22.3882 43.0198C24.5596 40.8597 27.2108 40.3112 29.5877 42.5547C32.3585 45.1696 32.0887 48.0388 29.1693 50.8993Z" fill="#A982D7"/>
<path d="M89.984 21.7005C91.7773 19.0998 93.7812 17.7969 96.6735 19.0495C98.8453 19.9903 100.077 21.7254 99.9923 24.0443C99.9067 26.3968 98.4449 27.9531 96.217 28.6944C92.2572 30.0116 89.4182 27.0286 89.984 21.7005Z" fill="#A982D7"/>
<path d="M109.729 38.4842C106.953 39.4821 104.839 38.9486 103.305 36.8464C102.004 35.0645 102.025 33.0057 103.055 31.1466C104.12 29.2253 105.978 28.4182 108.166 28.6705C110.184 28.9029 111.739 29.9869 112.257 31.9751C112.916 34.5071 112.55 36.8469 109.729 38.4842Z" fill="#A982D7"/>
<path d="M79.3252 30.8805C80.2324 28.6264 81.7864 28.1991 83.6155 28.7636C84.9787 29.1843 85.6257 30.3072 85.5698 31.7374C85.5129 33.1908 84.6317 34.2283 83.3477 34.5733C80.5642 35.3215 79.4555 33.7533 79.3252 30.8805Z" fill="#A982D7"/>
<path d="M30.5634 18.7682C32.6786 20.3039 32.9047 21.9846 31.451 23.687C30.5705 24.7179 29.2571 25.0657 27.9432 24.3897C26.6968 23.7484 25.9197 22.6187 26.2103 21.2479C26.657 19.1431 28.0138 18.0802 30.5634 18.7682Z" fill="#A982D7"/>
<path d="M36.2864 52.8616C38.4301 51.4603 40.0752 51.7911 41.2499 53.6375C42.0283 54.8607 41.6338 56.0725 40.6331 57.0752C39.6497 58.0609 38.5167 58.57 37.2363 57.7291C35.4852 56.5791 34.7192 55.0909 36.2864 52.8616Z" fill="#A982D7"/>
<path d="M113.656 23.8287C112.493 21.8883 112.525 20.3218 114.101 19.0364C114.932 18.3576 115.919 18.2298 116.882 18.729C118.394 19.5122 119.502 20.7075 118.726 22.4611C117.786 24.5839 116.125 25.3623 113.656 23.8287Z" fill="#A982D7"/>
<path d="M26.7142 10.2467C28.7102 11.2763 29.2968 12.5544 27.6478 13.9433C26.7183 14.726 25.3709 14.6391 24.6823 13.5018C23.5536 11.6373 24.5896 10.6527 26.7142 10.2467Z" fill="#A982D7"/>
<path d="M49.622 56.9616C50.1593 59.3865 49.0537 60.2629 47.1426 59.9332C45.8096 59.7033 45.3173 58.4168 45.8248 57.2543C46.639 55.3896 47.972 55.1269 49.622 56.9616Z" fill="#A982D7"/>
<path d="M116.768 12.5221C117.187 10.3119 118.276 9.52032 120.043 10.6465C121.135 11.3426 121.337 12.657 120.462 13.5538C119.08 14.9711 117.739 14.6167 116.768 12.5221Z" fill="#A982D7"/>
<path d="M75.0663 35.5777C73.4054 37.2816 72.0775 37.0547 71.2478 35.2233C70.6902 33.993 71.3527 32.8391 72.5688 32.5718C74.6217 32.1204 75.3493 33.3561 75.0663 35.5777Z" fill="#A982D7"/>
</svg>
