<svg width="200" height="200" viewBox="0 0 200 200" fill="none" xmlns="http://www.w3.org/2000/svg">
<g clip-path="url(#clip0_872_6346)">
<mask id="mask0_872_6346" style="mask-type:luminance" maskUnits="userSpaceOnUse" x="0" y="0" width="200" height="200">
<path d="M200 0H0V200H200V0Z" fill="white"/>
</mask>
<g mask="url(#mask0_872_6346)">
<path fill-rule="evenodd" clip-rule="evenodd" d="M115.751 188.735H36.2184C28.4421 188.735 22.1191 182.412 22.1191 174.639L22.1204 25.3466C22.1204 17.5735 28.4413 11.2501 36.2173 11.2501L115.751 11.25C123.525 11.25 129.849 17.5738 129.849 25.3466L129.849 51.9873C129.849 53.1096 128.939 54.0196 127.817 54.0196C126.697 54.0196 125.785 53.1102 125.785 51.9878L125.785 25.3466C125.785 19.8146 121.283 15.3144 115.751 15.3144H36.2184C30.6858 15.3144 26.1836 19.8149 26.1836 25.3466L26.1849 174.638C26.1849 180.17 30.6858 184.671 36.2173 184.671L115.751 184.671C121.284 184.671 125.785 180.17 125.785 174.639L125.785 147.998C125.785 146.875 126.695 145.966 127.817 145.966C128.94 145.966 129.849 146.875 129.849 147.998L129.85 174.638C129.85 182.412 123.523 188.735 115.751 188.735Z" fill="#1F1342"/>
<path fill-rule="evenodd" clip-rule="evenodd" d="M127.817 32.921H24.1525C23.0301 32.921 22.1191 32.0119 22.1191 30.8895C22.1204 29.7672 23.0293 28.8574 24.1514 28.8574H127.817C128.94 28.8574 129.849 29.7672 129.849 30.8895C129.849 32.0113 128.939 32.9216 127.817 32.921ZM127.817 171.134H24.1525C23.0301 171.134 22.1191 170.224 22.1191 169.102C22.1204 167.979 23.0293 167.07 24.1514 167.07L127.817 167.069C128.94 167.069 129.849 167.98 129.849 169.102C129.849 170.224 128.939 171.134 127.817 171.134ZM122.91 145.969H132.725V137.587C132.725 136.607 133.423 135.765 134.39 135.589C139.418 134.667 144.11 132.721 148.333 129.808C149.141 129.25 150.231 129.35 150.926 130.044L156.854 135.973L163.793 129.034L157.867 123.105C157.171 122.411 157.072 121.321 157.629 120.514C160.545 116.29 162.488 111.598 163.412 106.568C163.588 105.603 164.428 104.903 165.409 104.903L173.789 104.902V95.0881H165.409C164.428 95.0881 163.588 94.3881 163.412 93.4231C162.488 88.3946 160.543 83.7028 157.629 79.4772C157.073 78.6696 157.17 77.5801 157.866 76.8866L163.793 70.9575L156.854 64.0175L150.927 69.9472C150.231 70.641 149.14 70.7398 148.333 70.1837C144.11 67.2704 139.417 65.3257 134.39 64.4028C133.423 64.2254 132.725 63.3848 132.725 62.404V54.0225H122.91V62.4037C122.91 63.3845 122.208 64.2257 121.244 64.4028C116.218 65.3248 111.524 67.2704 107.298 70.1843C106.494 70.741 105.403 70.6416 104.708 69.9484L98.7778 64.0181L91.8381 70.9575L97.7696 76.8866C98.4634 77.5804 98.5623 78.6707 98.0046 79.4781C95.0914 83.701 93.1464 88.3931 92.222 93.4234C92.0461 94.3881 91.2061 95.0887 90.222 95.0887L81.8423 95.0881V104.902H90.2249C91.2064 104.902 92.0458 105.604 92.222 106.568C93.1464 111.595 95.0905 116.287 98.0046 120.514C98.5634 121.321 98.4631 122.411 97.7681 123.104L91.8381 129.034L98.7778 135.973L104.709 130.043C105.403 129.35 106.493 129.251 107.298 129.808C111.525 132.722 116.213 134.667 121.244 135.59C122.211 135.767 122.91 136.608 122.91 137.589L122.91 145.969ZM134.757 150.033H120.878C119.755 150.033 118.845 149.124 118.845 148.001L118.845 139.245C114.425 138.242 110.254 136.513 106.408 134.09L100.218 140.284C99.8367 140.665 99.317 140.88 98.7773 140.88C98.2411 140.879 97.7225 140.666 97.3411 140.284L87.5308 130.47C86.737 129.677 86.7358 128.391 87.5296 127.597L93.7225 121.401C91.2984 117.555 89.569 113.386 88.567 108.967L79.8102 108.967C78.6893 108.967 77.7781 108.057 77.7781 106.935V93.0569C77.7781 91.9337 78.6884 91.0249 79.8102 91.0249H88.5678C89.5693 86.6031 91.2975 82.4331 93.7217 78.589L87.5264 72.3946C87.1452 72.0134 86.9334 71.4969 86.9334 70.9578C86.934 70.4181 87.1452 69.9019 87.5264 69.5207L97.3425 59.7069C98.1364 58.9131 99.4231 58.914 100.217 59.7072L106.413 65.9028C110.258 63.4784 114.424 61.7504 118.845 60.7466L118.845 51.9901C118.845 50.8678 119.755 49.9587 120.877 49.9587L134.757 49.9581C135.879 49.9581 136.789 50.8684 136.789 51.9907L136.789 60.746C141.211 61.7501 145.38 63.4793 149.222 65.9016L155.418 59.7069C155.799 59.3257 156.317 59.1122 156.853 59.1122C157.393 59.1122 157.912 59.326 158.293 59.7072L168.105 69.5201C168.899 70.314 168.898 71.6013 168.104 72.3948L161.913 78.5878C164.336 82.434 166.061 86.6046 167.067 91.0243L175.821 91.024C176.942 91.024 177.852 91.9343 177.852 93.0566L177.853 106.935C177.853 108.057 176.942 108.967 175.82 108.967L167.067 108.967C166.062 113.388 164.333 117.558 161.909 121.402L168.105 127.597C168.486 127.978 168.7 128.495 168.7 129.034C168.7 129.573 168.485 130.09 168.104 130.471L158.293 140.284C157.5 141.077 156.211 141.078 155.417 140.284L149.222 134.089C145.377 136.512 141.206 138.241 136.789 139.245L136.789 148.001C136.789 149.124 135.878 150.033 134.757 150.033Z" fill="#1F1342"/>
<path fill-rule="evenodd" clip-rule="evenodd" d="M127.816 75.6449C114.393 75.6449 103.469 86.5672 103.469 99.9928C103.47 113.418 114.392 124.341 127.816 124.341C141.241 124.341 152.163 113.418 152.163 99.9928C152.164 86.5669 141.24 75.6449 127.816 75.6449ZM127.816 128.405C112.148 128.405 99.4043 115.66 99.4043 99.9931C99.4055 84.3261 112.148 71.5811 127.816 71.5811C143.482 71.5805 156.228 84.3264 156.228 99.9931C156.229 115.659 143.481 128.405 127.816 128.405Z" fill="#1F1342"/>
<path fill-rule="evenodd" clip-rule="evenodd" d="M131.351 101.483C130.626 101.483 129.926 101.093 129.559 100.409L122.475 87.1708C121.946 86.1808 122.319 84.9499 123.307 84.4205C124.299 83.8914 125.53 84.264 126.059 85.2535L133.143 98.4905C133.674 99.4805 133.299 100.712 132.307 101.241C132.005 101.405 131.676 101.483 131.351 101.483ZM119.233 101.482C118.8 101.482 118.357 101.342 117.983 101.052L109.288 94.2649C108.794 93.8799 108.507 93.289 108.507 92.6629C108.508 92.0367 108.793 91.4458 109.287 91.0611L117.988 84.274C118.869 83.5835 120.146 83.7411 120.838 84.6261C121.53 85.5108 121.37 86.7882 120.485 87.4785L113.843 92.6623L120.485 97.8476C121.371 98.5382 121.529 99.8152 120.838 100.7C120.436 101.213 119.839 101.482 119.233 101.482ZM136.383 101.482C135.779 101.482 135.179 101.214 134.78 100.7C134.09 99.8146 134.248 98.5385 135.133 97.8479L141.777 92.6623L135.135 87.4779C134.248 86.7882 134.089 85.5108 134.78 84.6261C135.473 83.7405 136.749 83.5837 137.631 84.2743L146.329 91.0605C146.823 91.4452 147.111 92.0373 147.111 92.6629C147.112 93.2884 146.822 93.8799 146.328 94.2652L137.632 101.051C137.262 101.341 136.82 101.482 136.383 101.482ZM139.933 108.816H115.688C114.565 108.816 113.654 107.906 113.654 106.784C113.655 105.662 114.564 104.752 115.686 104.752L139.933 104.751C141.055 104.751 141.963 105.662 141.963 106.784C141.965 107.906 141.055 108.816 139.933 108.816ZM139.933 116.15H115.688C114.565 116.15 113.654 115.241 113.654 114.118C113.655 112.996 114.564 112.086 115.686 112.086L139.933 112.085C141.055 112.085 141.963 112.996 141.963 114.118C141.965 115.24 141.055 116.15 139.933 116.15ZM107.583 52.707H44.3663C43.2455 52.707 42.334 51.7973 42.334 50.6749C42.334 49.5526 43.2443 48.6432 44.3663 48.6432L107.583 48.6426C108.708 48.6426 109.614 49.5526 109.614 50.6749C109.615 51.7967 108.708 52.7073 107.583 52.707ZM79.0308 72.4358H44.3663C43.2455 72.4358 42.334 71.5264 42.334 70.404C42.334 69.2811 43.2443 68.372 44.3663 68.372L79.0308 68.3714C80.1516 68.3714 81.0619 69.2817 81.0619 70.404C81.0628 71.5261 80.1516 72.4361 79.0308 72.4358ZM67.1613 92.1646H44.366C43.2452 92.1646 42.334 91.2549 42.334 90.1326C42.334 89.0099 43.244 88.1005 44.366 88.1005L67.1613 88.1002C68.2837 88.1002 69.1931 89.0102 69.1931 90.1326C69.1934 91.2546 68.2831 92.1649 67.1613 92.1646ZM69.3428 111.893H44.366C43.2452 111.893 42.334 110.984 42.334 109.862C42.334 108.739 43.244 107.83 44.366 107.83L69.3428 107.829C70.4634 107.829 71.3737 108.74 71.3737 109.862C71.3749 110.984 70.4646 111.893 69.3428 111.893ZM76.8505 131.623H44.3663C43.2455 131.623 42.334 130.713 42.334 129.591C42.334 128.468 43.2443 127.558 44.3663 127.558H76.8505C77.9713 127.558 78.8813 128.468 78.8813 129.591C78.8813 130.712 77.971 131.623 76.8505 131.623ZM107.583 151.352H44.3663C43.2455 151.352 42.334 150.442 42.334 149.32C42.334 148.197 43.2443 147.288 44.3663 147.288L107.583 147.288C108.708 147.288 109.614 148.198 109.614 149.32C109.615 150.442 108.708 151.352 107.583 151.352Z" fill="#1F1342"/>
</g>
</g>
<defs>
<clipPath id="clip0_872_6346">
<rect width="200" height="200" fill="white"/>
</clipPath>
</defs>
</svg>
