<svg width="200" height="200" viewBox="0 0 200 200" fill="none" xmlns="http://www.w3.org/2000/svg">
<g clip-path="url(#clip0_872_2905)">
<mask id="mask0_872_2905" style="mask-type:luminance" maskUnits="userSpaceOnUse" x="0" y="0" width="200" height="200">
<path d="M200 0H0V200H200V0Z" fill="white"/>
</mask>
<g mask="url(#mask0_872_2905)">
<path d="M172.602 101.952H144.972C143.934 101.952 142.939 101.539 142.205 100.804C141.471 100.07 141.059 99.0739 141.059 98.0351C141.059 96.9965 141.471 96.0004 142.205 95.2656C142.939 94.5312 143.934 94.1186 144.972 94.1186H172.602C177.8 94.1186 182.784 92.0521 186.459 88.3739C190.134 84.6956 192.199 79.7068 192.199 74.5048C192.199 69.303 190.134 64.3142 186.459 60.6357C182.784 56.9574 177.8 54.8909 172.602 54.8909H170.466C169.428 54.8909 168.432 54.4783 167.699 53.7439C166.965 53.0095 166.552 52.0133 166.552 50.9745C166.559 47.6115 165.785 44.2927 164.292 41.2801C162.799 38.2674 160.626 35.6433 157.947 33.6142C155.267 31.5854 152.153 30.2071 148.85 29.5883C145.547 28.9696 142.146 29.1272 138.915 30.0486C138.095 30.2812 137.222 30.2401 136.429 29.9312C135.635 29.6221 134.964 29.0626 134.517 28.3371C130.664 22.0688 125.272 16.8927 118.854 13.3022C112.436 9.71162 105.206 7.8265 97.8531 7.8265C90.5004 7.8265 83.2704 9.71162 76.8522 13.3022C70.4342 16.8927 65.0419 22.0688 61.1898 28.3371C60.7425 29.0626 60.0713 29.6221 59.2775 29.9312C58.4836 30.2401 57.6107 30.2812 56.7916 30.0486C53.5666 29.1347 50.1739 28.9807 46.8798 29.5989C43.5854 30.2171 40.4792 31.5906 37.8039 33.6115C35.1289 35.6327 32.9581 38.2465 31.4613 41.248C29.9645 44.2495 29.1826 47.5571 29.1771 50.9118C29.1771 50.9745 29.1771 51.0333 29.1771 51.0959C29.1811 52.0762 28.8175 53.0227 28.1582 53.7477C27.4989 54.473 26.5918 54.9242 25.6162 55.0124C20.6667 55.558 16.1104 57.9692 12.8729 61.7557C9.63532 65.5424 7.95941 70.4206 8.18559 75.3992C8.41176 80.378 10.5231 85.0836 14.0906 88.5606C17.6581 92.0374 22.4142 94.0248 27.3927 94.1186H55.0189C56.0566 94.1186 57.0519 94.5312 57.7857 95.2656C58.5195 96.0004 58.9319 96.9965 58.9319 98.0351C58.9319 99.0739 58.5195 100.07 57.7857 100.804C57.0519 101.539 56.0566 101.952 55.0189 101.952H27.3927C20.6327 101.949 14.1119 99.4474 9.08197 94.9271C4.05209 90.4068 0.86761 84.1862 0.139892 77.4595C-0.587828 70.7327 1.19249 63.9742 5.13909 58.4809C9.08565 52.9877 14.9204 49.1471 21.5231 47.6962C21.9657 43.6709 23.2303 39.7795 25.2384 36.2639C27.2465 32.748 29.9554 29.683 33.1966 27.2591C36.4378 24.8351 40.1422 23.1039 44.0801 22.173C48.0178 21.242 52.1048 21.1312 56.0872 21.8475C60.7716 15.1016 67.0172 9.5903 74.291 5.78421C81.5648 1.97813 89.651 -0.00976562 97.8589 -0.00976562C106.067 -0.00976562 114.153 1.97813 121.427 5.78421C128.701 9.5903 134.947 15.1016 139.631 21.8475C143.564 21.1417 147.599 21.2419 151.492 22.142C155.385 23.0422 159.056 24.7235 162.281 27.0843C165.507 29.4451 168.22 32.4362 170.257 35.8768C172.294 39.3174 173.612 43.1359 174.132 47.1009C181.26 47.5012 187.951 50.6677 192.783 55.9277C197.615 61.1877 200.207 68.1262 200.008 75.2689C199.81 82.4115 196.836 89.1948 191.719 94.1774C186.602 99.1601 179.745 101.949 172.606 101.952H172.602Z" fill="#1F1342"/>
<path d="M99.9075 145.088C90.2207 145.089 80.751 142.215 72.6966 136.829C64.6419 131.443 58.364 123.787 54.6566 114.83C50.9492 105.873 49.979 96.0167 51.8687 86.5076C53.7584 76.9985 58.4228 68.2638 65.2725 61.4082C72.1222 54.5523 80.849 49.8838 90.3498 47.9926C99.8504 46.1011 109.698 47.0723 118.647 50.7829C127.597 54.4935 135.246 60.777 140.627 68.8388C146.008 76.9003 148.88 86.3782 148.879 96.0735C148.865 109.069 143.701 121.528 134.52 130.716C125.339 139.905 112.891 145.074 99.9075 145.088ZM99.9075 54.8876C91.7687 54.887 83.8125 57.3017 77.0448 61.8267C70.2772 66.352 65.0025 72.7841 61.8875 80.3097C58.7722 87.8353 57.9569 96.1167 59.544 104.106C61.1313 112.096 65.0501 119.435 70.8048 125.195C76.5598 130.955 83.8919 134.878 91.8743 136.468C99.8566 138.057 108.131 137.242 115.65 134.125C123.169 131.008 129.596 125.729 134.118 118.956C138.64 112.183 141.053 104.22 141.053 96.0735C141.042 85.1547 136.703 74.6861 128.99 66.9647C121.276 59.2435 110.817 54.9002 99.9075 54.8876Z" fill="#1F1342"/>
<path d="M78.3545 115.678C77.705 115.678 77.0656 115.516 76.4945 115.206C75.923 114.897 75.4377 114.45 75.0821 113.906C74.7265 113.362 74.5118 112.738 74.4571 112.09C74.4027 111.442 74.5103 110.791 74.77 110.195L88.4659 78.8199C88.7709 78.1228 89.2724 77.5296 89.9089 77.1131C90.5456 76.6967 91.2898 76.4746 92.05 76.4746C92.8106 76.4746 93.5548 76.6967 94.1912 77.1131C94.828 77.5296 95.3295 78.1228 95.6345 78.8199L109.33 110.195C109.708 111.14 109.704 112.195 109.318 113.137C108.933 114.079 108.196 114.833 107.264 115.24C106.332 115.648 105.278 115.676 104.325 115.319C103.373 114.962 102.597 114.248 102.162 113.328L92.0698 90.1581L81.9427 113.332C81.6374 114.03 81.1353 114.624 80.498 115.041C79.8606 115.457 79.1156 115.679 78.3545 115.678Z" fill="#1F1342"/>
<path d="M102.354 107.818H81.7834C80.7454 107.818 79.7501 107.405 79.0163 106.671C78.2825 105.936 77.8701 104.94 77.8701 103.902C77.8701 102.863 78.2825 101.867 79.0163 101.132C79.7501 100.397 80.7454 99.9848 81.7834 99.9848H102.339C103.376 99.9848 104.372 100.397 105.105 101.132C105.839 101.867 106.252 102.863 106.252 103.902C106.252 104.94 105.839 105.936 105.105 106.671C104.372 107.405 103.376 107.818 102.339 107.818H102.354ZM121.462 115.678C120.424 115.678 119.428 115.266 118.695 114.531C117.961 113.797 117.549 112.801 117.549 111.762V96.0763C117.549 95.0374 117.961 94.0413 118.695 93.3068C119.428 92.5724 120.424 92.1598 121.462 92.1598C122.5 92.1598 123.495 92.5724 124.229 93.3068C124.962 94.0413 125.375 95.0374 125.375 96.0763V111.762C125.375 112.801 124.962 113.797 124.229 114.531C123.495 115.266 122.5 115.678 121.462 115.678ZM121.465 88.2236C121.203 88.2254 120.941 88.2004 120.683 88.1492C120.432 88.0986 120.187 88.0239 119.951 87.926C119.476 87.7304 119.044 87.443 118.68 87.0801C118.499 86.898 118.336 86.6986 118.194 86.4848C118.054 86.2704 117.933 86.0436 117.834 85.8071C117.736 85.571 117.662 85.3257 117.611 85.0748C117.507 84.5698 117.507 84.0486 117.611 83.5433C117.662 83.2927 117.736 83.0474 117.834 82.811C117.933 82.5745 118.054 82.3477 118.194 82.1336C118.477 81.7039 118.845 81.336 119.274 81.0524C119.488 80.9118 119.715 80.7913 119.951 80.6921C120.187 80.5942 120.432 80.5195 120.683 80.4689C121.188 80.3671 121.708 80.3671 122.213 80.4689C122.463 80.5201 122.708 80.5948 122.945 80.6921C123.193 80.7933 123.43 80.9192 123.653 81.0683C123.867 81.2092 124.067 81.3721 124.248 81.5539C124.43 81.736 124.594 81.9354 124.737 82.1492C124.877 82.3633 124.998 82.5904 125.097 82.8268C125.195 83.063 125.269 83.3083 125.32 83.5592C125.424 84.0642 125.424 84.5854 125.32 85.0904C125.269 85.3413 125.195 85.5866 125.097 85.8227C124.998 86.0592 124.877 86.2863 124.737 86.5004C124.305 87.143 123.694 87.6442 122.98 87.9416C122.744 88.0392 122.499 88.1139 122.248 88.1648C121.99 88.211 121.728 88.2307 121.465 88.2236ZM99.9125 176.466C98.8745 176.466 97.8792 176.054 97.1454 175.319C96.4116 174.585 95.9992 173.589 95.9992 172.55V141.175C95.9992 140.136 96.4116 139.14 97.1454 138.405C97.8792 137.671 98.8745 137.258 99.9125 137.258C100.95 137.258 101.945 137.671 102.679 138.405C103.413 139.14 103.825 140.136 103.825 141.175V172.55C103.825 173.589 103.413 174.585 102.679 175.319C101.945 176.054 100.95 176.466 99.9125 176.466Z" fill="#1F1342"/>
<path d="M113.628 199.997H86.1977C85.16 199.997 84.1647 199.585 83.4309 198.85C82.6971 198.116 82.2847 197.12 82.2847 196.081V172.55C82.2847 171.512 82.6971 170.516 83.4309 169.781C84.1647 169.047 85.16 168.634 86.1977 168.634H113.628C114.666 168.634 115.661 169.047 116.395 169.781C117.129 170.516 117.541 171.512 117.541 172.55V196.081C117.541 197.12 117.129 198.116 116.395 198.85C115.661 199.585 114.666 199.997 113.628 199.997ZM90.1109 192.164H109.715V176.467H90.1109V192.164ZM180.24 199.997H152.81C151.772 199.997 150.776 199.585 150.043 198.85C149.309 198.116 148.897 197.12 148.897 196.081V172.55C148.897 171.512 149.309 170.516 150.043 169.781C150.776 169.047 151.772 168.634 152.81 168.634H180.24C181.278 168.634 182.273 169.047 183.007 169.781C183.741 170.516 184.153 171.512 184.153 172.55V196.081C184.153 197.12 183.741 198.116 183.007 198.85C182.273 199.585 181.278 199.997 180.24 199.997ZM156.723 192.164H176.327V176.467H156.723V192.164ZM47.0165 199.997H19.5859C18.5481 199.997 17.5528 199.585 16.819 198.85C16.0851 198.116 15.6729 197.12 15.6729 196.081V172.55C15.6729 171.512 16.0851 170.516 16.819 169.781C17.5528 169.047 18.5481 168.634 19.5859 168.634H47.0165C48.0541 168.634 49.0494 169.047 49.7832 169.781C50.5171 170.516 50.9294 171.512 50.9294 172.55V196.081C50.9294 197.12 50.5171 198.116 49.7832 198.85C49.0494 199.585 48.0541 199.997 47.0165 199.997ZM23.4989 192.164H43.1032V176.467H23.4989V192.164Z" fill="#1F1342"/>
<path d="M86.1999 188.232H47.0184C45.9808 188.232 44.9855 187.82 44.2516 187.085C43.5178 186.351 43.1055 185.354 43.1055 184.316C43.1055 183.277 43.5178 182.281 44.2516 181.546C44.9855 180.812 45.9808 180.399 47.0184 180.399H86.1999C87.2375 180.399 88.2331 180.812 88.9669 181.546C89.7008 182.281 90.1128 183.277 90.1128 184.316C90.1128 185.354 89.7008 186.351 88.9669 187.085C88.2331 187.82 87.2375 188.232 86.1999 188.232ZM152.812 188.232H113.63C112.593 188.232 111.597 187.82 110.863 187.085C110.13 186.351 109.717 185.354 109.717 184.316C109.717 183.277 110.13 182.281 110.863 181.546C111.597 180.812 112.593 180.399 113.63 180.399H152.812C153.85 180.399 154.845 180.812 155.579 181.546C156.313 182.281 156.725 183.277 156.725 184.316C156.725 185.354 156.313 186.351 155.579 187.085C154.845 187.82 153.85 188.232 152.812 188.232Z" fill="#1F1342"/>
</g>
</g>
<defs>
<clipPath id="clip0_872_2905">
<rect width="200" height="200" fill="white"/>
</clipPath>
</defs>
</svg>
