<svg width="162" height="40" viewBox="0 0 162 40" fill="none" xmlns="http://www.w3.org/2000/svg">
<g clip-path="url(#clip0_12_769)">
<path d="M23.3136 38.8949C21.3281 39.5803 19.812 38.9558 19.3405 37.3499C18.8778 35.7735 19.7958 34.2219 21.3995 33.8699C22.5615 33.6149 23.7586 34.198 24.3322 35.2987C24.9891 36.5589 24.6938 37.678 23.3136 38.8949Z" fill="#FDFDFE"/>
<path d="M16.8341 5.0686C17.6499 6.66392 17.5018 7.87292 16.4538 8.78846C15.6096 9.526 14.149 9.60953 13.1973 8.97477C11.8406 8.06992 11.5668 6.29397 12.585 5.0039C13.636 3.67243 15.2953 3.6657 16.8341 5.0686Z" fill="#FDFDFE"/>
<path d="M31.7827 20.4214C30.5868 19.1486 30.3151 18.0643 30.9391 16.9654C31.5204 15.942 32.4204 15.3439 33.6271 15.5092C34.9183 15.6862 35.7302 16.4769 36.012 17.7635C36.2421 18.8142 35.8108 19.6665 35.0365 20.2966C34.0596 21.0916 32.9588 21.033 31.7827 20.4214Z" fill="#FDFDFE"/>
<path d="M1.82005 27.3918C0.551785 26.1652 0.26245 25.1224 0.890023 23.9846C1.48993 22.897 2.42013 22.349 3.69723 22.5165C4.86298 22.6694 5.78688 23.6146 5.97694 24.8708C6.12861 25.8733 5.70357 26.6638 4.94298 27.2564C3.99283 27.9969 2.96128 28.074 1.82005 27.3918Z" fill="#FDFDFE"/>
<path d="M6.61172 7.03659C7.8187 5.74526 8.91686 5.56254 9.94986 6.40357C10.85 7.13646 11.065 8.37054 10.4573 9.317C9.82547 10.3012 8.64209 10.6598 7.628 10.1745C6.47028 9.62038 6.08009 8.50692 6.61172 7.03659Z" fill="#FDFDFE"/>
<path d="M2.36914 18.8987C2.76596 17.2855 3.62817 16.4951 4.80779 16.635C5.90595 16.7652 6.66266 17.388 6.85507 18.4887C7.0494 19.6006 6.52299 20.4281 5.51669 20.8899C4.47057 21.3699 3.56606 21.0736 2.90043 20.1654C2.65427 19.8295 2.54671 19.392 2.36914 18.8987Z" fill="#FDFDFE"/>
<path d="M21.3489 10.359C20.0506 10.4612 19.2207 9.92192 18.8489 8.81654C18.553 7.93646 18.7644 7.10163 19.4949 6.46716C20.4146 5.66835 21.7927 5.76506 22.6347 6.67066C23.4926 7.59342 23.4307 8.92108 22.4503 9.77369C22.1668 10.0203 21.7887 10.158 21.3489 10.359Z" fill="#FDFDFE"/>
<path d="M5.12027 29.1421C6.54307 29.7802 7.1278 30.6559 6.8513 31.7489C6.57913 32.8249 5.83614 33.4978 4.73827 33.5542C3.55852 33.6148 2.78553 32.9325 2.45947 31.8143C2.03185 30.3478 3.19418 29.1396 5.12027 29.1421Z" fill="#FDFDFE"/>
<path d="M33.0586 26.4309C31.4004 26.9271 30.2844 26.4364 29.8416 25.1039C29.4763 24.0048 30.0721 22.8235 31.2125 22.3861C32.2259 21.9973 33.3493 22.3988 33.8985 23.3462C34.5589 24.4855 34.3606 25.2857 33.0586 26.4309Z" fill="#FDFDFE"/>
<path d="M16.0819 37.3823C14.9272 37.5033 14.0819 37.1069 13.6552 36.1411C13.3122 35.3645 13.3111 34.5172 13.9471 33.8301C14.5697 33.1576 15.3204 32.7507 16.2645 33.0761C17.1974 33.3977 17.8071 34.0175 17.8616 35.0597C17.9252 36.2791 17.3142 37.0095 16.0819 37.3823Z" fill="#FDFDFE"/>
<path d="M28.582 37.3425C26.9172 37.3742 25.9335 36.622 25.8237 35.3373C25.735 34.3001 26.5926 33.2377 27.6992 33.0138C28.7839 32.7943 29.9285 33.5543 30.2708 34.7214C30.5795 35.7743 30.0342 36.6613 28.582 37.3425Z" fill="#FDFDFE"/>
<path d="M29.7879 12.5308C29.612 11.3453 30.0919 10.568 31.0108 10.0779C31.8018 9.656 32.6121 9.75092 33.3337 10.2838C34.4101 11.0785 34.5439 12.4859 33.661 13.4676C32.7681 14.4605 31.3741 14.536 30.4449 13.6016C30.1788 13.3342 30.0219 12.9582 29.7879 12.5308Z" fill="#FDFDFE"/>
<path d="M12.6002 32.7286C11.9481 33.5716 11.2074 33.7638 10.3942 33.2346C9.76471 32.8249 9.47094 32.1803 9.72725 31.4381C10.0412 30.5289 10.7418 30.174 11.6706 30.3937C12.6339 30.6216 12.9754 31.4486 12.6002 32.7286Z" fill="#FDFDFE"/>
<path d="M8.09249 12.8833C9.47372 13.5389 9.85734 14.4045 9.27165 15.322C8.77465 16.1008 7.74403 16.3024 6.99868 15.7548C6.5039 15.3913 6.26831 14.8849 6.37315 14.2821C6.52733 13.3955 7.10533 12.9468 8.09249 12.8833Z" fill="#FDFDFE"/>
<path d="M26.9433 11.7839C26.1101 13.0752 25.0274 13.3517 24.2707 12.5318C23.7586 11.977 23.5743 11.3244 24.0093 10.627C24.3896 10.0177 24.9509 9.71096 25.6659 9.87473C26.6026 10.0893 27.056 10.701 26.9433 11.7839Z" fill="#FDFDFE"/>
<path d="M8.83234 37.0815C7.90942 37.448 7.1213 37.4526 6.60317 36.5949C6.2122 35.9477 6.22449 35.2473 6.77906 34.6957C7.43655 34.0416 8.23934 33.8755 8.95903 34.5548C9.79803 35.3466 9.71634 36.2153 8.83234 37.0815Z" fill="#FDFDFE"/>
<path d="M27.8793 8.92781C27.1064 8.29773 26.8868 7.60007 27.3065 6.79392C27.6398 6.15393 28.2059 5.87333 28.9306 5.99266C29.6547 6.11193 30.0794 6.57779 30.2412 7.26599C30.5251 8.47312 29.5715 9.18796 27.8793 8.92781Z" fill="#FDFDFE"/>
<path d="M27.2473 28.2403C27.7903 27.4528 28.3971 27.0583 29.2729 27.4376C29.9305 27.7225 30.3033 28.2478 30.2778 28.95C30.2519 29.6623 29.8093 30.1335 29.1347 30.358C27.9357 30.7569 27.076 29.8536 27.2473 28.2403Z" fill="#FDFDFE"/>
<path d="M2.89103 10.3881C3.69248 9.71053 4.45225 9.62614 5.17086 10.2887C5.75105 10.8235 5.78089 11.5286 5.45377 12.1921C5.10443 12.9005 4.4405 13.1045 3.69658 12.9516C2.63996 12.7345 2.34215 11.8566 2.89103 10.3881Z" fill="#FDFDFE"/>
<path d="M33.2249 33.3226C32.3843 33.6247 31.7441 33.4632 31.2796 32.8266C30.8859 32.2871 30.892 31.6637 31.2041 31.1008C31.5266 30.519 32.0892 30.2746 32.7516 30.351C33.3627 30.4214 33.8336 30.7496 33.9903 31.3516C34.1899 32.1183 34.079 32.8268 33.2249 33.3226Z" fill="#FDFDFE"/>
<path d="M25.8679 5.28535C25.4712 5.94093 24.9997 6.11567 24.4203 5.73976C24.066 5.50983 23.9161 5.14463 24.0378 4.73314C24.1726 4.27735 24.5135 3.98124 24.9896 4.0345C25.633 4.10644 25.9749 4.50119 25.8679 5.28535Z" fill="#FDFDFE"/>
<path d="M24.0186 31.0205C24.2932 30.338 24.7638 30.2086 25.3176 30.3795C25.7304 30.5069 25.9263 30.8469 25.9094 31.28C25.8922 31.72 25.6253 32.0342 25.2366 32.1387C24.3937 32.3652 24.058 31.8904 24.0186 31.0205Z" fill="#FDFDFE"/>
<path d="M9.2545 27.3527C9.89496 27.8177 9.96342 28.3266 9.52326 28.8421C9.25665 29.1542 8.85896 29.2595 8.46111 29.0548C8.08373 28.8607 7.84842 28.5186 7.93642 28.1035C8.07165 27.4662 8.4825 27.1444 9.2545 27.3527Z" fill="#FDFDFE"/>
<path d="M10.9878 37.676C11.6369 37.2517 12.135 37.3519 12.4907 37.911C12.7264 38.2813 12.607 38.6483 12.304 38.9519C12.0062 39.2503 11.6631 39.4045 11.2754 39.1499C10.7452 38.8016 10.5133 38.351 10.9878 37.676Z" fill="#FDFDFE"/>
<path d="M34.414 28.8849C34.0618 28.2974 34.0716 27.8231 34.5486 27.4339C34.8003 27.2283 35.0991 27.1896 35.3908 27.3408C35.8484 27.5779 36.1842 27.9399 35.9491 28.4709C35.6645 29.1136 35.1616 29.3493 34.414 28.8849Z" fill="#FDFDFE"/>
<path d="M28.6989 15.0271C28.4112 15.9829 27.9003 16.4359 27.1023 15.7049C26.6657 15.305 26.7251 14.6949 27.2515 14.3549C27.9257 13.9194 28.3908 14.2706 28.6989 15.0271Z" fill="#FDFDFE"/>
<path d="M2.08825 15.8362C1.44152 16.209 1.0039 16.0454 0.726965 15.4958C0.505607 15.0564 0.63509 14.6501 1.0236 14.3554C1.36856 14.0939 1.76516 14.0757 2.09581 14.3477C2.62145 14.7803 2.64157 15.2823 2.08825 15.8362Z" fill="#FDFDFE"/>
<path d="M12.2881 11.4294C12.7658 12.0139 12.6659 12.4749 12.1584 12.8249C11.757 13.1017 11.3351 13.0469 10.9929 12.6806C10.7409 12.4109 10.6137 12.0862 10.8089 11.7366C11.1409 11.1422 11.6151 10.9987 12.2881 11.4294Z" fill="#FDFDFE"/>
<path d="M8.0893 24.7725C8.69368 25.0842 8.8713 25.4712 8.37199 25.8918C8.09053 26.1288 7.68254 26.1025 7.47406 25.7581C7.13229 25.1935 7.44597 24.8954 8.0893 24.7725Z" fill="#FDFDFE"/>
<path d="M22.7753 4.25565C22.4608 4.88839 22.072 4.99994 21.6532 4.52153C21.387 4.21753 21.4508 3.83074 21.7886 3.63734C22.3237 3.331 22.6781 3.54764 22.7753 4.25565Z" fill="#FDFDFE"/>
<path d="M15.0255 38.9172C15.1882 39.6514 14.8534 39.9168 14.2747 39.8169C13.8711 39.7473 13.722 39.3578 13.8757 39.0058C14.1223 38.4412 14.5259 38.3616 15.0255 38.9172Z" fill="#FDFDFE"/>
<path d="M15.0705 10.9239C15.1902 11.6249 14.9214 11.9628 14.3089 11.8261C13.9379 11.7433 13.7321 11.3651 13.8956 11.0012C14.1532 10.4284 14.5706 10.3862 15.0705 10.9239Z" fill="#FDFDFE"/>
<path d="M0.737965 17.3574C1.3032 17.686 1.51953 18.063 1.01597 18.4922C0.709732 18.7532 0.326915 18.6597 0.138274 18.3272C-0.157943 17.805 0.0127099 17.4353 0.737965 17.3574Z" fill="#FDFDFE"/>
<path d="M35.3564 25.4614C35.4834 24.7922 35.8133 24.5525 36.3484 24.8935C36.679 25.1043 36.7401 25.5023 36.4752 25.7738C36.0568 26.203 35.6504 26.0957 35.3564 25.4614Z" fill="#FDFDFE"/>
<path d="M22.7304 32.4425C22.2275 32.9584 21.8254 32.8897 21.5742 32.3352C21.4054 31.9627 21.606 31.6133 21.9742 31.5324C22.5958 31.3957 22.8161 31.7698 22.7304 32.4425Z" fill="#FDFDFE"/>
<path d="M28.7287 18.6177C28.0736 18.487 27.8142 18.164 28.1467 17.6238C28.3495 17.2942 28.7175 17.2094 29.0144 17.4923C29.4609 17.9177 29.348 18.3087 28.7287 18.6177Z" fill="#FDFDFE"/>
<path d="M51.3614 37.032C52.1062 37.032 52.4786 36.7559 52.4786 36.2038C52.4786 35.9791 52.4208 35.8024 52.3053 35.6741C52.1961 35.5456 51.9906 35.4333 51.6889 35.337L50.8991 35.0769C49.9552 34.7688 49.4833 34.1491 49.4833 33.2181C49.4833 32.6788 49.6503 32.2358 49.9842 31.8891C50.3245 31.5359 50.8542 31.3594 51.5732 31.3594C51.875 31.3594 52.1736 31.3947 52.4689 31.4653C52.7643 31.5295 53.0789 31.6355 53.4128 31.7831L53.0565 32.7751C52.7482 32.6531 52.485 32.5665 52.2667 32.5151C52.0549 32.4573 51.8366 32.4284 51.6118 32.4284C51.3165 32.4284 51.0821 32.483 50.9087 32.5921C50.7418 32.6948 50.6583 32.8843 50.6583 33.1604C50.6583 33.3658 50.7161 33.536 50.8317 33.6708C50.9537 33.7992 51.1527 33.9084 51.4288 33.9982L52.2186 34.2583C52.6937 34.4188 53.05 34.6531 53.2876 34.9614C53.5316 35.2631 53.6536 35.6644 53.6536 36.1652C53.6536 36.7431 53.4706 37.2118 53.1046 37.5714C52.7386 37.9245 52.1639 38.1011 51.3806 38.1011C51.0725 38.1011 50.7514 38.0658 50.4176 37.9951C50.0901 37.9181 49.7306 37.7897 49.3389 37.6099L49.6952 36.6179C50.0548 36.772 50.3598 36.8811 50.6102 36.9454C50.867 37.0031 51.1174 37.032 51.3614 37.032ZM59.9911 34.0368V35.414C59.9911 36.2487 59.7824 36.9068 59.3651 37.3884C58.9477 37.8635 58.3378 38.1011 57.5352 38.1011C56.7262 38.1011 56.113 37.8635 55.6956 37.3884C55.2847 36.9068 55.0792 36.2487 55.0792 35.414V34.0368C55.0792 33.2021 55.2847 32.5471 55.6956 32.0721C56.113 31.5969 56.7262 31.3594 57.5352 31.3594C58.3378 31.3594 58.9477 31.5969 59.3651 32.0721C59.7824 32.5471 59.9911 33.2021 59.9911 34.0368ZM58.8065 34.0368C58.8065 33.5103 58.7038 33.1154 58.4983 32.8521C58.2929 32.5825 57.9718 32.4477 57.5352 32.4477C57.0986 32.4477 56.7776 32.5825 56.5721 32.8521C56.3666 33.1154 56.2639 33.5103 56.2639 34.0368V35.414C56.2639 35.9405 56.3666 36.3386 56.5721 36.6082C56.7776 36.8779 57.0986 37.0128 57.5352 37.0128C57.9718 37.0128 58.2929 36.8779 58.4983 36.6082C58.7038 36.3386 58.8065 35.9405 58.8065 35.414V34.0368ZM65.7322 36.8972V38.0048H61.9568V31.4557H63.1126V36.8972H65.7322ZM67.0278 31.4557H68.2124V35.6548C68.2124 36.0785 68.3055 36.4124 68.4917 36.6564C68.6779 36.894 68.9765 37.0128 69.3874 37.0128C69.7983 37.0128 70.0969 36.894 70.2831 36.6564C70.4692 36.4124 70.5624 36.0785 70.5624 35.6548V31.4557H71.747V35.6548C71.747 36.3931 71.5512 36.9871 71.1595 37.4365C70.7679 37.8795 70.1772 38.1011 69.3874 38.1011C68.5912 38.1011 67.9973 37.8795 67.6056 37.4365C67.2204 36.9871 67.0278 36.3931 67.0278 35.6548V31.4557ZM73.0659 32.5632V31.4557H77.8816V32.5632H76.0515V38.0048H74.8957V32.5632H73.0659ZM80.5092 38.0048H79.3531V31.4557H80.5092V38.0048ZM87.3862 34.0368V35.414C87.3862 36.2487 87.1777 36.9068 86.76 37.3884C86.3431 37.8635 85.7331 38.1011 84.93 38.1011C84.1216 38.1011 83.5077 37.8635 83.0908 37.3884C82.68 36.9068 82.4746 36.2487 82.4746 35.414V34.0368C82.4746 33.2021 82.68 32.5471 83.0908 32.0721C83.5077 31.5969 84.1216 31.3594 84.93 31.3594C85.7331 31.3594 86.3431 31.5969 86.76 32.0721C87.1777 32.5471 87.3862 33.2021 87.3862 34.0368ZM86.2016 34.0368C86.2016 33.5103 86.0985 33.1154 85.8931 32.8521C85.6877 32.5825 85.3669 32.4477 84.93 32.4477C84.4939 32.4477 84.1723 32.5825 83.9669 32.8521C83.7616 33.1154 83.6593 33.5103 83.6593 34.0368V35.414C83.6593 35.9405 83.7616 36.3386 83.9669 36.6082C84.1723 36.8779 84.4939 37.0128 84.93 37.0128C85.3669 37.0128 85.6877 36.8779 85.8931 36.6082C86.0985 36.3386 86.2016 35.9405 86.2016 35.414V34.0368ZM89.3516 38.0048V31.4557H90.4116C90.9185 32.117 91.4 32.8168 91.8562 33.5552C92.3116 34.2871 92.7262 35.0416 93.0985 35.8185L93.0116 33.8635V31.4557H94.1193V38.0048H93.06C92.6492 37.1958 92.2216 36.3835 91.7793 35.5681C91.3423 34.7463 90.8769 33.9726 90.3823 33.2471L90.4592 35.5007V38.0048H89.3516ZM97.7892 37.032C98.5339 37.032 98.9062 36.7559 98.9062 36.2038C98.9062 35.9791 98.8485 35.8024 98.7331 35.6741C98.6239 35.5456 98.4185 35.4333 98.1169 35.337L97.3269 35.0769C96.3831 34.7688 95.9116 34.1491 95.9116 33.2181C95.9116 32.6788 96.0785 32.2358 96.4123 31.8891C96.7523 31.5359 97.2823 31.3594 98.0016 31.3594C98.3031 31.3594 98.6016 31.3947 98.8969 31.4653C99.1923 31.5295 99.5069 31.6355 99.8408 31.7831L99.4846 32.7751C99.1762 32.6531 98.9131 32.5665 98.6946 32.5151C98.4831 32.4573 98.2646 32.4284 98.04 32.4284C97.7446 32.4284 97.51 32.483 97.3369 32.5921C97.17 32.6948 97.0862 32.8843 97.0862 33.1604C97.0862 33.3658 97.1439 33.536 97.2592 33.6708C97.3815 33.7992 97.5808 33.9084 97.8569 33.9982L98.6462 34.2583C99.1216 34.4188 99.4777 34.6531 99.7154 34.9614C99.9593 35.2631 100.082 35.6644 100.082 36.1652C100.082 36.7431 99.8985 37.2118 99.5323 37.5714C99.1669 37.9245 98.5916 38.1011 97.8085 38.1011C97.5008 38.1011 97.1792 38.0658 96.8454 37.9951C96.5177 37.9181 96.1585 37.7897 95.7669 37.6099L96.1231 36.6179C96.4831 36.772 96.7877 36.8811 97.0385 36.9454C97.2946 37.0031 97.5454 37.032 97.7892 37.032Z" fill="#FDFDFE"/>
<path d="M50.6523 24.6152V6.29004H59.445C61.5507 6.29004 63.0968 6.84966 64.0833 7.96894C65.0697 9.06917 65.5629 10.5583 65.5629 12.4364C65.5629 13.6695 65.2404 14.7318 64.5954 15.6234C63.9694 16.5149 63.0778 17.1599 61.9207 17.5583C62.2242 17.8049 62.4613 18.0706 62.632 18.3551C62.8217 18.6396 63.0114 19.019 63.2011 19.4933L65.4207 24.6152H61.4369L59.2743 19.6925C59.0846 19.2752 58.876 18.9811 58.6483 18.8104C58.4207 18.6396 58.0413 18.5542 57.51 18.5542H54.4938V24.6152H50.6523ZM54.4938 15.3672H58.4491C59.4545 15.3672 60.2418 15.1491 60.8109 14.7128C61.38 14.2576 61.6646 13.4987 61.6646 12.4364C61.6646 11.412 61.418 10.6627 60.9247 10.1884C60.4315 9.71417 59.6822 9.47702 58.6767 9.47702H54.4938V15.3672ZM113.317 24.6152V9.2494H107.683V6.29004H122.764V9.2494H117.158V24.6152H113.317ZM132.01 24.6152V6.29004H135.852V24.6152H132.01ZM144.031 24.6152V9.2494H138.397V6.29004H153.477V9.2494H147.872V24.6152H144.031Z" fill="#FDFDFE"/>
<path d="M77.1985 6.20767C76.1746 6.28645 75.0576 6.57063 74.1263 6.98986C71.4393 8.20251 69.4585 10.6926 68.9014 13.5624C68.6735 14.7385 68.6735 15.9597 68.9014 17.1357C69.3291 19.3275 70.6009 21.3393 72.4297 22.7094C74.2557 24.0797 76.681 24.7324 78.9008 24.4511C81.5231 24.1163 84.2077 22.5266 87.4516 19.3838C87.6939 19.153 87.9239 18.9336 87.9662 18.897C88.0062 18.8604 89.0893 17.7688 90.3723 16.4717C92.6339 14.1786 93.3485 13.4808 94.1085 12.814C96.1485 11.0246 97.8616 10.037 99.3977 9.76127C99.7416 9.69935 100.482 9.69374 100.875 9.7472C103.132 10.0567 105.031 11.7392 105.585 13.9282C105.723 14.4712 105.754 14.7329 105.754 15.349C105.754 16.1116 105.658 16.663 105.414 17.3186C104.617 19.4485 102.665 20.8694 100.36 20.9932C99.1477 21.0579 97.6254 20.5261 96.3285 19.5807C95.9431 19.3022 95.9516 19.3134 96.0639 19.17C96.2416 18.9505 96.2608 18.6579 96.1177 18.4243C96.0862 18.3737 95.7769 18.0951 95.4277 17.8082C95.0823 17.5183 94.7977 17.2764 94.7977 17.268C94.7977 17.2595 94.8262 17.223 94.857 17.1892C94.8908 17.1526 94.91 17.1076 94.9046 17.0879C94.8962 17.0682 94.8146 16.9922 94.7216 16.919L94.5531 16.7868L94.39 16.981C94.297 17.0964 94.2154 17.1695 94.1954 17.1582C94.1785 17.147 93.9085 16.9275 93.5962 16.6658C93.2816 16.4042 92.9946 16.1791 92.9523 16.165C92.7977 16.106 92.62 16.2803 92.6762 16.438C92.6993 16.5027 93.3208 17.0513 93.8523 17.4734L93.9339 17.538L93.5039 18.053C93.267 18.3371 93.0508 18.5932 93.0223 18.6241C92.9746 18.6747 92.9546 18.6607 92.3585 18.1655C91.8154 17.7154 91.7339 17.6562 91.6439 17.6562C91.4693 17.6562 91.3539 17.8644 91.4577 17.9939C91.4777 18.0192 91.7539 18.2584 92.0769 18.5257C92.3977 18.7929 92.6593 19.0237 92.6593 19.0405C92.6593 19.0546 92.5893 19.1503 92.5016 19.2516C92.4177 19.3528 92.3554 19.4457 92.37 19.457C92.3808 19.4654 92.4654 19.5357 92.5585 19.6117L92.7216 19.7496L92.7916 19.668C92.8539 19.5976 92.8677 19.592 92.9208 19.623C92.9523 19.6454 93.2362 19.8734 93.5485 20.1322C94.1623 20.6443 94.227 20.6865 94.4093 20.7118C94.6008 20.7371 94.7585 20.6809 94.9246 20.5233C95.0062 20.4474 95.0793 20.3854 95.0877 20.3854C95.0993 20.3854 95.2116 20.467 95.3377 20.5655C95.8839 20.9847 96.6608 21.4405 97.2708 21.705C98.4608 22.2143 99.4431 22.4112 100.515 22.3521C103.033 22.2171 105.273 20.74 106.401 18.4694C107.386 16.4942 107.386 14.204 106.401 12.2288C105.152 9.71627 102.493 8.16597 99.75 8.34604C97.817 8.47266 95.67 9.60366 93.1831 11.8011C92.2739 12.603 91.5931 13.2754 88.6639 16.2438C87.0831 17.8504 86.1462 18.762 85.4423 19.3866C82.8146 21.7219 80.6116 22.9036 78.4931 23.1174C78.0908 23.1568 77.2493 23.1344 76.8329 23.0752C75.9551 22.9458 75.1561 22.6954 74.3936 22.3127C72.092 21.1535 70.522 18.9477 70.1591 16.3592C70.0916 15.8752 70.0916 14.823 70.1591 14.339C70.4855 12.0037 71.7882 9.98074 73.7662 8.73427C74.6834 8.1575 75.7723 7.7692 76.9316 7.60604C77.337 7.54977 78.4962 7.55821 78.887 7.62011C80.6285 7.89581 82.1539 8.63866 83.9739 10.096C84.4746 10.4984 85.2877 11.1821 85.2877 11.2047C85.2877 11.213 85.2485 11.2694 85.2008 11.3284C85.0231 11.5535 85.0039 11.8377 85.15 12.0769C85.1808 12.1275 85.4908 12.406 85.8393 12.693C86.1854 12.9828 86.4693 13.2276 86.4693 13.2389C86.4693 13.2501 86.4439 13.281 86.4131 13.3092C86.3823 13.3374 86.3569 13.3767 86.3569 13.3936C86.3569 13.4134 86.4362 13.4949 86.5346 13.5737L86.7085 13.7172L86.8069 13.599C86.8608 13.5315 86.937 13.4414 86.9762 13.3993L87.0462 13.3177L87.66 13.8269C87.9977 14.1083 88.2954 14.339 88.3208 14.339C88.4331 14.3474 88.4839 14.3277 88.5462 14.263C88.6077 14.1899 88.6223 14.1251 88.5908 14.0407C88.58 14.0154 88.3039 13.7707 87.9777 13.5005C87.6516 13.2276 87.3731 12.9969 87.3616 12.9857C87.3393 12.966 88.2531 11.832 88.29 11.832C88.2985 11.832 88.577 12.06 88.9116 12.3385C89.4608 12.7944 89.5308 12.845 89.6239 12.845C89.7054 12.845 89.7446 12.8281 89.7869 12.7718C89.8516 12.6874 89.8631 12.572 89.8093 12.5073C89.7893 12.482 89.5139 12.2429 89.1931 11.9756C88.8693 11.7083 88.6077 11.4776 88.6077 11.4607C88.6077 11.4466 88.6785 11.3481 88.7623 11.2468C88.8469 11.1456 88.9093 11.0527 88.8946 11.0443C88.8839 11.033 88.8023 10.9627 88.7093 10.8867L88.5431 10.7488L88.47 10.8389L88.3939 10.9317L87.7693 10.4112C87.4262 10.127 87.1054 9.87097 87.0577 9.84566C86.8131 9.72189 86.5031 9.78374 86.3093 10.0032C86.2531 10.0651 86.197 10.1157 86.1823 10.1157C86.1716 10.1157 86.0246 9.99758 85.8562 9.85412C85.1162 9.21543 84.3962 8.66674 83.6277 8.16035C81.3716 6.66911 79.3262 6.0473 77.1985 6.20767Z" fill="#FDFDFE" stroke="#FDFDFE" stroke-width="0.461538"/>
</g>
<defs>
<clipPath id="clip0_12_769">
<rect width="161.538" height="40" fill="white"/>
</clipPath>
</defs>
</svg>
