<svg width="40" height="40" viewBox="0 0 40 40" fill="none" xmlns="http://www.w3.org/2000/svg">
<path d="M25.3116 37.3929C23.3261 38.0783 21.81 37.4538 21.3386 35.8479C20.8758 34.2715 21.7938 32.72 23.3976 32.368C24.5596 32.1129 25.7566 32.6961 26.3303 33.7968C26.9871 35.057 26.6919 36.1761 25.3116 37.3929Z" fill="#FDFDFE"/>
<path d="M18.8331 3.56664C19.649 5.16197 19.5008 6.37097 18.4528 7.2865C17.6086 8.02404 16.148 8.10758 15.1964 7.47281C13.8396 6.56797 13.5658 4.79202 14.584 3.50194C15.635 2.17047 17.2943 2.16374 18.8331 3.56664Z" fill="#FDFDFE"/>
<path d="M33.7817 18.9199C32.5859 17.6472 32.3141 16.5629 32.9382 15.4639C33.5194 14.4406 34.4195 13.8424 35.6261 14.0078C36.9173 14.1847 37.7292 14.9754 38.011 16.262C38.2411 17.3128 37.8098 18.165 37.0355 18.7951C36.0586 19.5902 34.9578 19.5316 33.7817 18.9199Z" fill="#FDFDFE"/>
<path d="M3.82005 25.8894C2.55178 24.6628 2.26245 23.6199 2.89002 22.4822C3.48993 21.3945 4.42013 20.8465 5.69723 21.0141C6.86298 21.1669 7.78688 22.1122 7.97694 23.3684C8.12861 24.3709 7.70357 25.1614 6.94298 25.754C5.99283 26.4945 4.96128 26.5715 3.82005 25.8894Z" fill="#FDFDFE"/>
<path d="M8.6127 5.53415C9.81968 4.24282 10.9178 4.0601 11.9508 4.90113C12.851 5.63402 13.066 6.8681 12.4583 7.81456C11.8265 8.79871 10.6431 9.1574 9.62897 8.67202C8.47126 8.11794 8.08107 7.00448 8.6127 5.53415Z" fill="#FDFDFE"/>
<path d="M4.36719 17.3968C4.76401 15.7835 5.62622 14.9932 6.80584 15.133C7.90399 15.2632 8.66071 15.8861 8.85312 16.9868C9.04745 18.0986 8.52104 18.9262 7.51474 19.3879C6.46862 19.8679 5.5641 19.5717 4.89847 18.6635C4.65232 18.3275 4.54476 17.8901 4.36719 17.3968Z" fill="#FDFDFE"/>
<path d="M23.3479 8.85705C22.0496 8.9592 21.2197 8.41997 20.8479 7.31458C20.552 6.43451 20.7634 5.59968 21.4939 4.96521C22.4136 4.16639 23.7917 4.26311 24.6337 5.16871C25.4916 6.09147 25.4297 7.41912 24.4493 8.27174C24.1658 8.51835 23.7878 8.65605 23.3479 8.85705Z" fill="#FDFDFE"/>
<path d="M7.12027 27.6406C8.54307 28.2788 9.1278 29.1544 8.8513 30.2474C8.57913 31.3235 7.83614 31.9963 6.73827 32.0527C5.55852 32.1133 4.78553 31.431 4.45947 30.3129C4.03185 28.8463 5.19418 27.6382 7.12027 27.6406Z" fill="#FDFDFE"/>
<path d="M35.0586 24.9285C33.4004 25.4247 32.2844 24.934 31.8416 23.6015C31.4763 22.5024 32.0721 21.3211 33.2125 20.8836C34.2259 20.4949 35.3493 20.8964 35.8985 21.8438C36.5589 22.9831 36.3606 23.7832 35.0586 24.9285Z" fill="#FDFDFE"/>
<path d="M18.0819 35.8803C16.9272 36.0013 16.0819 35.605 15.6552 34.6391C15.3122 33.8626 15.3111 33.0153 15.9471 32.3282C16.5697 31.6557 17.3204 31.2487 18.2645 31.5742C19.1974 31.8957 19.8071 32.5155 19.8616 33.5577C19.9252 34.7772 19.3142 35.5075 18.0819 35.8803Z" fill="#FDFDFE"/>
<path d="M30.581 35.8411C28.9162 35.8727 27.9326 35.1205 27.8227 33.8358C27.734 32.7987 28.5916 31.7363 29.6982 31.5124C30.7829 31.2928 31.9275 32.0528 32.2698 33.22C32.5786 34.2728 32.0332 35.1598 30.581 35.8411Z" fill="#FDFDFE"/>
<path d="M31.7859 11.0293C31.61 9.84384 32.0899 9.06654 33.0089 8.57646C33.7999 8.15454 34.6102 8.24946 35.3318 8.78231C36.4082 9.577 36.5419 10.9845 35.6591 11.9662C34.7662 12.9591 33.3722 13.0345 32.4429 12.1002C32.1769 11.8327 32.0199 11.4567 31.7859 11.0293Z" fill="#FDFDFE"/>
<path d="M14.5983 31.2262C13.9461 32.0691 13.2054 32.2613 12.3923 31.7321C11.7628 31.3224 11.469 30.6779 11.7253 29.9357C12.0392 29.0264 12.7398 28.6716 13.6687 28.8913C14.632 29.1191 14.9734 29.9461 14.5983 31.2262Z" fill="#FDFDFE"/>
<path d="M10.0915 11.3809C11.4727 12.0365 11.8564 12.902 11.2707 13.8196C10.7737 14.5983 9.74305 14.7999 8.99771 14.2523C8.50292 13.8889 8.26734 13.3825 8.37218 12.7796C8.52635 11.8931 9.10435 11.4443 10.0915 11.3809Z" fill="#FDFDFE"/>
<path d="M28.9433 10.2819C28.1101 11.5732 27.0274 11.8497 26.2707 11.0299C25.7586 10.4751 25.5743 9.82247 26.0093 9.12509C26.3896 8.51578 26.9509 8.20901 27.6659 8.37278C28.6026 8.5874 29.056 9.19901 28.9433 10.2819Z" fill="#FDFDFE"/>
<path d="M10.8314 35.58C9.90844 35.9465 9.12032 35.9511 8.6022 35.0934C8.21122 34.4462 8.22351 33.7459 8.77808 33.1942C9.43557 32.5401 10.2384 32.374 10.9581 33.0533C11.7971 33.8451 11.7154 34.7139 10.8314 35.58Z" fill="#FDFDFE"/>
<path d="M29.8803 7.42586C29.1073 6.79578 28.8877 6.09812 29.3075 5.29196C29.6407 4.65197 30.2069 4.37137 30.9316 4.49071C31.6557 4.60997 32.0804 5.07583 32.2422 5.76403C32.526 6.97116 31.5725 7.68601 29.8803 7.42586Z" fill="#FDFDFE"/>
<path d="M29.2483 26.7384C29.7913 25.9509 30.3981 25.5564 31.2739 25.9357C31.9315 26.2205 32.3043 26.7459 32.2788 27.448C32.2529 28.1604 31.8102 28.6316 31.1356 28.8561C29.9366 29.2549 29.077 28.3517 29.2483 26.7384Z" fill="#FDFDFE"/>
<path d="M4.89103 8.88668C5.69248 8.20906 6.45225 8.12468 7.17086 8.78722C7.75105 9.32206 7.78089 10.0271 7.45377 10.6906C7.10443 11.3991 6.4405 11.6031 5.69658 11.4501C4.63996 11.233 4.34215 10.3551 4.89103 8.88668Z" fill="#FDFDFE"/>
<path d="M35.2249 31.8211C34.3843 32.1232 33.7441 31.9617 33.2796 31.3252C32.8859 30.7856 32.892 30.1622 33.2041 29.5993C33.5266 29.0176 34.0892 28.7732 34.7516 28.8496C35.3627 28.9199 35.8336 29.2482 35.9903 29.8502C36.1899 30.6169 36.079 31.3253 35.2249 31.8211Z" fill="#FDFDFE"/>
<path d="M27.8679 3.7834C27.4712 4.43898 26.9997 4.61372 26.4203 4.2378C26.066 4.00788 25.9161 3.64268 26.0378 3.23119C26.1726 2.7754 26.5135 2.47929 26.9896 2.53254C27.633 2.60449 27.9749 2.99923 27.8679 3.7834Z" fill="#FDFDFE"/>
<path d="M26.0195 29.5186C26.2942 28.836 26.7648 28.7066 27.3186 28.8776C27.7314 29.0049 27.9273 29.3449 27.9104 29.778C27.8931 30.2181 27.6263 30.5322 27.2375 30.6367C26.3947 30.8632 26.059 30.3884 26.0195 29.5186Z" fill="#FDFDFE"/>
<path d="M11.2545 25.8502C11.895 26.3152 11.9634 26.8242 11.5233 27.3396C11.2566 27.6518 10.859 27.7571 10.4611 27.5524C10.0837 27.3582 9.84842 27.0162 9.93642 26.6011C10.0716 25.9638 10.4825 25.6419 11.2545 25.8502Z" fill="#FDFDFE"/>
<path d="M12.9878 36.1741C13.6369 35.7498 14.135 35.8499 14.4907 36.409C14.7264 36.7794 14.607 37.1463 14.304 37.4499C14.0062 37.7484 13.6631 37.9025 13.2754 37.6479C12.7452 37.2997 12.5133 36.8491 12.9878 36.1741Z" fill="#FDFDFE"/>
<path d="M36.414 27.383C36.0618 26.7955 36.0716 26.3211 36.5486 25.9319C36.8003 25.7264 37.0991 25.6877 37.3908 25.8388C37.8484 26.076 38.1842 26.4379 37.9491 26.9689C37.6645 27.6117 37.1616 27.8474 36.414 27.383Z" fill="#FDFDFE"/>
<path d="M30.6999 13.5251C30.4122 14.481 29.9013 14.9339 29.1032 14.2029C28.6666 13.8031 28.7261 13.1929 29.2525 12.8529C29.9266 12.4175 30.3918 12.7686 30.6999 13.5251Z" fill="#FDFDFE"/>
<path d="M4.0863 14.3343C3.43957 14.707 3.00194 14.5435 2.72501 13.9939C2.50365 13.5545 2.63314 13.1481 3.02164 12.8535C3.36661 12.5919 3.76321 12.5737 4.09386 12.8458C4.6195 13.2783 4.63962 13.7803 4.0863 14.3343Z" fill="#FDFDFE"/>
<path d="M14.2891 9.92697C14.7668 10.5114 14.6668 10.9725 14.1594 11.3224C13.758 11.5993 13.3361 11.5444 12.9939 11.1782C12.7419 10.9084 12.6147 10.5837 12.8099 10.2342C13.1419 9.63974 13.6161 9.49627 14.2891 9.92697Z" fill="#FDFDFE"/>
<path d="M10.0913 23.2705C10.6956 23.5823 10.8733 23.9693 10.3739 24.3898C10.0925 24.6268 9.68449 24.6005 9.47601 24.2561C9.13425 23.6916 9.44792 23.3934 10.0913 23.2705Z" fill="#FDFDFE"/>
<path d="M24.7753 2.7537C24.4608 3.38643 24.072 3.49799 23.6532 3.01957C23.387 2.71558 23.4508 2.32879 23.7886 2.13539C24.3237 1.82904 24.6781 2.04569 24.7753 2.7537Z" fill="#FDFDFE"/>
<path d="M17.0255 37.4152C17.1882 38.1494 16.8534 38.4148 16.2747 38.315C15.8711 38.2454 15.722 37.8558 15.8757 37.5038C16.1223 36.9392 16.5259 36.8597 17.0255 37.4152Z" fill="#FDFDFE"/>
<path d="M17.0715 9.42197C17.1912 10.123 16.9224 10.4608 16.3099 10.3241C15.9388 10.2414 15.7331 9.86312 15.8966 9.49928C16.1541 8.92643 16.5716 8.88428 17.0715 9.42197Z" fill="#FDFDFE"/>
<path d="M2.73796 15.8555C3.3032 16.184 3.51953 16.561 3.01597 16.9902C2.70973 17.2512 2.32691 17.1578 2.13827 16.8252C1.84206 16.3031 2.01271 15.9333 2.73796 15.8555Z" fill="#FDFDFE"/>
<path d="M37.3555 23.9595C37.4824 23.2902 37.8123 23.0506 38.3474 23.3916C38.678 23.6023 38.7391 24.0003 38.4742 24.2719C38.0558 24.701 37.6495 24.5937 37.3555 23.9595Z" fill="#FDFDFE"/>
<path d="M24.7324 30.9401C24.2295 31.456 23.8274 31.3873 23.5762 30.8328C23.4073 30.4602 23.6079 30.1108 23.9762 30.0299C24.5978 29.8932 24.8181 30.2674 24.7324 30.9401Z" fill="#FDFDFE"/>
<path d="M30.7267 17.1157C30.0717 16.9851 29.8123 16.6621 30.1447 16.1219C30.3476 15.7922 30.7156 15.7075 31.0124 15.9903C31.459 16.4158 31.3461 16.8067 30.7267 17.1157Z" fill="#FDFDFE"/>
</svg>
