<svg width="200" height="200" viewBox="0 0 200 200" fill="none" xmlns="http://www.w3.org/2000/svg">
<path d="M32.7025 104.769H110.102C110.931 104.769 111.726 104.44 112.312 103.854C112.898 103.268 113.227 102.473 113.227 101.644C113.227 100.816 112.898 100.021 112.312 99.4347C111.726 98.8488 110.931 98.5194 110.102 98.5194H35.8401V40.3694C35.8401 39.5406 35.5107 38.7459 34.9248 38.1597C34.3387 37.5738 33.5437 37.2444 32.7148 37.2444C31.8863 37.2444 31.0913 37.5738 30.5051 38.1597C29.9193 38.7459 29.5898 39.5406 29.5898 40.3694V101.644C29.5898 102.471 29.9175 103.264 30.5007 103.85C31.0843 104.435 31.8757 104.766 32.7025 104.769ZM133.723 56.8526H168.152C168.981 56.8526 169.776 56.5235 170.362 55.9373C170.948 55.3514 171.277 54.5564 171.277 53.7276C171.277 52.8991 170.948 52.1041 170.362 51.5179C169.776 50.932 168.981 50.6026 168.152 50.6026H133.723C132.895 50.6026 132.1 50.932 131.514 51.5179C130.927 52.1041 130.598 52.8991 130.598 53.7276C130.598 54.5564 130.927 55.3514 131.514 55.9373C132.1 56.5235 132.895 56.8526 133.723 56.8526ZM133.723 74.1444H168.152C168.981 74.1444 169.776 73.8153 170.362 73.2291C170.948 72.6432 171.277 71.8482 171.277 71.0194C171.277 70.1906 170.948 69.3959 170.362 68.8097C169.776 68.2238 168.981 67.8944 168.152 67.8944H133.723C132.895 67.8944 132.1 68.2238 131.514 68.8097C130.927 69.3959 130.598 70.1906 130.598 71.0194C130.598 71.8482 130.927 72.6432 131.514 73.2291C132.1 73.8153 132.895 74.1444 133.723 74.1444ZM133.723 91.4361H168.152C168.981 91.4361 169.776 91.1067 170.362 90.5208C170.948 89.9347 171.277 89.14 171.277 88.3111C171.277 87.4823 170.948 86.6873 170.362 86.1014C169.776 85.5153 168.981 85.1861 168.152 85.1861H133.723C132.895 85.1861 132.1 85.5153 131.514 86.1014C130.927 86.6873 130.598 87.4823 130.598 88.3111C130.598 89.14 130.927 89.9347 131.514 90.5208C132.1 91.1067 132.895 91.4361 133.723 91.4361Z" fill="#1F1342"/>
<path d="M44.75 93.0044C45.5659 93.0053 46.3494 92.6867 46.9332 92.1167L67.525 72.0335L77.3291 79.2667C77.9515 79.727 78.7226 79.9394 79.4929 79.8623C80.2632 79.7855 80.977 79.4247 81.4959 78.8502L106.963 50.6167V53.4626C106.963 54.2914 107.292 55.0861 107.878 55.6723C108.464 56.2585 109.259 56.5876 110.088 56.5876C110.916 56.5876 111.711 56.2585 112.297 55.6723C112.883 55.0861 113.213 54.2914 113.213 53.4626V42.5002C113.213 41.6714 112.883 40.8764 112.297 40.2905C111.711 39.7044 110.916 39.3752 110.088 39.3752H97.7832C96.9547 39.3752 96.1597 39.7044 95.5735 40.2905C94.9876 40.8764 94.6582 41.6714 94.6582 42.5002C94.6582 43.3288 94.9876 44.1238 95.5735 44.7099C96.1597 45.2958 96.9547 45.6252 97.7832 45.6252H103.063L78.75 72.5585L69.1 65.4167C68.5029 64.9776 67.7694 64.7647 67.03 64.8158C66.2906 64.867 65.5935 65.1788 65.0626 65.6958L42.5626 87.6335C42.1176 88.067 41.8123 88.6235 41.6853 89.2317C41.5582 89.8397 41.615 90.472 41.8491 91.0473C42.0829 91.6229 42.4829 92.1158 42.9982 92.4629C43.5135 92.81 44.1206 92.9955 44.7417 92.9958L44.75 93.0044Z" fill="#1F1342"/>
<path d="M190 9.41235H10C7.34697 9.41894 4.80476 10.4769 2.93035 12.3545C1.05594 14.232 0.00219709 16.776 0 19.429V136.371C0.00219353 139.024 1.0558 141.569 2.9301 143.447C4.80438 145.325 7.34659 146.384 10 146.391H190C192.654 146.384 195.196 145.325 197.07 143.447C198.944 141.569 199.998 139.024 200 136.371V19.429C199.998 16.776 198.944 14.232 197.07 12.3545C195.195 10.4769 192.653 9.41894 190 9.41235ZM193.75 136.371C193.75 137.367 193.356 138.323 192.653 139.03C191.95 139.736 190.996 140.136 190 140.141H10C9.00353 140.136 8.04974 139.736 7.34709 139.03C6.64441 138.323 6.24997 137.367 6.25 136.371V19.429C6.25 18.4344 6.64509 17.4806 7.34835 16.7774C8.05162 16.0741 9.00544 15.679 10 15.679H190C190.994 15.679 191.949 16.0741 192.652 16.7774C193.355 17.4806 193.75 18.4344 193.75 19.429V136.371Z" fill="#1F1342"/>
<path d="M184.051 21.3362H15.918C15.0891 21.3362 14.2943 21.6654 13.7083 22.2515C13.1222 22.8375 12.793 23.6324 12.793 24.4612V119.615C12.793 120.444 13.1222 121.239 13.7083 121.825C14.2943 122.411 15.0891 122.74 15.918 122.74H184.051C184.88 122.74 185.675 122.411 186.261 121.825C186.847 121.239 187.176 120.444 187.176 119.615V24.4612C187.176 23.6324 186.847 22.8375 186.261 22.2515C185.675 21.6654 184.88 21.3362 184.051 21.3362ZM180.926 116.49H19.043V27.5862H180.926V116.49ZM133.701 172.84H120.401L118.276 153.632C118.185 152.808 117.77 152.054 117.123 151.536C116.476 151.018 115.65 150.778 114.826 150.87C114.003 150.961 113.249 151.375 112.73 152.022C112.213 152.669 111.973 153.496 112.064 154.32L114.497 176.311C114.582 177.076 114.946 177.782 115.52 178.295C116.093 178.808 116.836 179.091 117.605 179.09H130.589V184.336H69.3928V179.09H82.3764C83.1458 179.091 83.8881 178.808 84.4617 178.295C85.0352 177.782 85.3996 177.076 85.4846 176.311L87.9178 154.32C87.9631 153.912 87.9276 153.499 87.8131 153.105C87.6987 152.71 87.5078 152.343 87.2511 152.022C86.9946 151.702 86.6776 151.435 86.3181 151.238C85.9584 151.04 85.5634 150.915 85.1555 150.87C84.3317 150.778 83.5052 151.018 82.8584 151.536C82.2114 152.054 81.7967 152.808 81.7055 153.632L79.5805 172.84H66.2473C65.4184 172.84 64.6234 173.17 64.0376 173.756C63.4514 174.342 63.1223 175.137 63.1223 175.965V187.461C63.1223 188.29 63.4514 189.085 64.0376 189.671C64.6234 190.257 65.4184 190.586 66.2473 190.586H133.701C134.53 190.586 135.325 190.257 135.911 189.671C136.497 189.085 136.826 188.29 136.826 187.461V175.965C136.826 175.137 136.497 174.342 135.911 173.756C135.325 173.17 134.53 172.84 133.701 172.84Z" fill="#1F1342"/>
</svg>
