<svg width="78" height="66" viewBox="0 0 78 66" fill="none" xmlns="http://www.w3.org/2000/svg">
<path d="M0.799805 65.6404V43.8004C0.799805 35.6404 2.2398 28.1204 5.11981 21.2403C7.99981 14.3604 12.8798 7.40036 19.7598 0.360352L32.2398 10.2003C28.2398 14.2004 25.1998 17.9604 23.1198 21.4804C21.0398 25.0004 19.6798 28.6003 19.0398 32.2803H34.3998V65.6404H0.799805ZM43.5998 65.6404V43.8004C43.5998 35.6404 45.0398 28.1204 47.9198 21.2403C50.7998 14.3604 55.6798 7.40036 62.5598 0.360352L75.0398 10.2003C71.0398 14.2004 67.9998 17.9604 65.9198 21.4804C63.8398 25.0004 62.4798 28.6003 61.8398 32.2803H77.1998V65.6404H43.5998Z" fill="#FDFDFE" fill-opacity="0.2"/>
</svg>
