<svg width="200" height="200" viewBox="0 0 200 200" fill="none" xmlns="http://www.w3.org/2000/svg">
<path d="M170.564 174.368C169.727 174.368 168.908 174.03 168.321 173.418L159.602 164.386C158.402 163.143 158.433 161.161 159.677 159.968C160.927 158.774 162.914 158.799 164.096 160.043L168.977 165.105L175.689 140.13L150.489 145.968L155.371 151.03C156.571 152.274 156.539 154.255 155.296 155.449C154.052 156.649 152.064 156.618 150.877 155.374L142.158 146.343C141.371 145.53 141.089 144.361 141.408 143.286C141.727 142.205 142.602 141.38 143.702 141.124L179.352 132.874C180.421 132.624 181.546 132.961 182.302 133.749C183.064 134.543 183.358 135.674 183.071 136.736L173.571 172.074C173.283 173.161 172.427 174.011 171.339 174.286C171.089 174.343 170.827 174.368 170.564 174.368Z" fill="#1F1342"/>
<path d="M105.645 187.34C105.138 187.34 104.632 187.334 104.126 187.328C83.1069 186.959 63.0634 178.871 47.6884 164.559C46.4257 163.384 46.3569 161.403 47.5319 160.14C48.7069 158.884 50.6884 158.803 51.9507 159.984C66.1945 173.246 84.7634 180.74 104.238 181.078C124.532 181.346 143.97 174.059 158.92 160.303C160.195 159.146 162.176 159.228 163.338 160.484C164.507 161.753 164.426 163.734 163.157 164.903C147.395 179.403 127.02 187.34 105.645 187.34ZM38.3507 156.471C37.5319 156.471 36.7319 156.146 36.1384 155.559L10.282 129.665C9.48201 128.865 9.17575 127.709 9.48201 126.621C9.78201 125.534 10.6445 124.696 11.732 124.421L23.9132 121.39C25.607 120.978 27.282 121.99 27.7007 123.665C28.1132 125.346 27.0945 127.04 25.4257 127.453L18.5945 129.146L36.8695 147.446L44.4257 122.709L37.5884 124.403C35.8884 124.796 34.2195 123.784 33.8069 122.121C33.3945 120.446 34.4134 118.753 36.0884 118.34L48.2695 115.315C49.3384 115.046 50.5195 115.378 51.2819 116.203C52.0569 117.015 52.3384 118.184 52.0069 119.259L41.3257 154.259C41.0007 155.309 40.1507 156.115 39.0945 156.384C38.8569 156.44 38.6007 156.471 38.3507 156.471Z" fill="#1F1342"/>
<path d="M24.724 126.641C23.2927 126.641 21.9989 125.654 21.6739 124.198C16.8927 102.798 20.4802 80.6602 31.7678 61.8602C42.6114 43.8164 59.6552 30.4975 79.7614 24.3539C81.4302 23.8539 83.1614 24.7851 83.6678 26.4289C84.1678 28.0851 83.2428 29.8287 81.5928 30.3352C62.9678 36.0225 47.174 48.3664 37.1302 65.0852C26.6677 82.4975 23.3489 103.004 27.7802 122.829C28.1552 124.516 27.099 126.185 25.4115 126.566C25.174 126.616 24.9427 126.641 24.724 126.641Z" fill="#1F1342"/>
<path d="M119.078 51.7704C118.222 51.7704 117.391 51.414 116.797 50.7766L91.828 24.0328C91.078 23.2328 90.803 22.0953 91.1095 21.0391C91.4095 19.9828 92.2469 19.1641 93.3095 18.8766L128.66 9.42658C129.735 9.14532 130.91 9.45781 131.691 10.2578C132.485 11.0641 132.778 12.2266 132.466 13.3078L128.997 25.3766C128.522 27.0391 126.778 28.0141 125.135 27.5203C123.472 27.0453 122.516 25.3078 122.991 23.6578L124.935 16.9016L99.953 23.5766L117.597 42.4828L119.547 35.7204C120.016 34.0516 121.76 33.0766 123.41 33.5766C125.072 34.0516 126.028 35.789 125.553 37.439L122.084 49.5078C121.772 50.5954 120.909 51.4266 119.816 51.689C119.566 51.739 119.322 51.7704 119.078 51.7704Z" fill="#1F1342"/>
<path d="M182.784 121.22C182.591 121.22 182.397 121.201 182.203 121.164C180.509 120.851 179.391 119.214 179.709 117.52C183.041 99.6135 180.003 80.9512 171.147 64.9824C161.297 47.2135 145.203 34.0885 125.816 28.0136C124.166 27.4949 123.253 25.7449 123.766 24.0949C124.284 22.4449 126.053 21.5324 127.684 22.0449C148.609 28.6074 165.984 42.7762 176.616 61.9574C186.166 79.1947 189.453 99.3324 185.853 118.67C185.572 120.17 184.253 121.22 182.784 121.22Z" fill="#1F1342"/>
<path d="M107.937 149.752H96.693C95.2242 149.752 93.9557 148.733 93.643 147.296L91.793 138.84C89.193 138.083 86.6992 137.046 84.3307 135.74L77.043 140.408C75.8057 141.196 74.193 141.027 73.1492 139.99L65.2057 132.046C64.168 131.008 63.993 129.39 64.7869 128.152L69.4492 120.865C68.143 118.483 67.1057 115.99 66.3557 113.402L57.9057 111.552C56.4742 111.24 55.4492 109.971 55.4492 108.502V97.2646C55.4492 95.802 56.468 94.527 57.9057 94.2146L66.3557 92.3585C67.1057 89.777 68.143 87.277 69.4492 84.902L64.7869 77.6147C63.993 76.3835 64.168 74.7585 65.2057 73.7208L73.1492 65.7708C74.193 64.7335 75.8057 64.5646 77.043 65.352L84.3369 70.0208C86.7119 68.7208 89.2057 67.6835 91.793 66.927L93.643 58.477C93.9557 57.0396 95.2242 56.0146 96.693 56.0146H107.937C109.406 56.0146 110.674 57.0335 110.987 58.477L112.837 66.927C115.424 67.6835 117.918 68.7208 120.293 70.0208L127.593 65.3585C128.831 64.5585 130.443 64.7335 131.487 65.777L139.431 73.7208C140.468 74.7585 140.643 76.3835 139.849 77.6147L135.181 84.902C136.487 87.2835 137.524 89.777 138.281 92.3647L146.737 94.2146C148.168 94.527 149.193 95.7958 149.193 97.2646V108.502C149.193 109.971 148.168 111.24 146.731 111.552L138.274 113.402C137.524 115.99 136.487 118.483 135.181 120.865L139.849 128.152C140.643 129.383 140.468 131.002 139.431 132.046L131.487 140.002C130.449 141.046 128.824 141.208 127.593 140.421L120.293 135.746C117.924 137.046 115.431 138.083 112.837 138.84L110.987 147.296C110.674 148.733 109.406 149.752 107.937 149.752ZM99.2057 143.502H105.418L107.137 135.646C107.393 134.471 108.306 133.546 109.474 133.271C112.743 132.496 115.856 131.208 118.718 129.433C119.743 128.802 121.031 128.802 122.049 129.458L128.837 133.802L133.224 129.408L128.881 122.627C128.231 121.615 128.224 120.321 128.856 119.302C130.637 116.415 131.931 113.302 132.687 110.046C132.962 108.871 133.887 107.965 135.068 107.708L142.931 105.99V99.7835L135.074 98.0647C133.899 97.8085 132.974 96.8958 132.699 95.727C131.931 92.4708 130.637 89.352 128.856 86.4708C128.218 85.452 128.231 84.1585 128.881 83.1458L133.224 76.3646L128.837 71.977L122.049 76.3146C121.037 76.9585 119.737 76.9708 118.724 76.3458C115.843 74.5646 112.731 73.2708 109.474 72.502C108.299 72.227 107.393 71.3085 107.137 70.1335L105.418 62.2708H99.2057L97.4869 70.1335C97.2307 71.3085 96.318 72.227 95.1492 72.502C91.893 73.2708 88.7742 74.5646 85.8992 76.3458C84.8807 76.977 83.5807 76.9585 82.5742 76.3146L75.793 71.977L71.4057 76.3708L75.743 83.1458C76.393 84.1585 76.3992 85.452 75.768 86.4708C73.9807 89.3647 72.693 92.4708 71.9369 95.7208C71.6619 96.8958 70.7369 97.802 69.5619 98.0585L61.7057 99.7835V105.99L69.5619 107.708C70.7369 107.965 71.6619 108.877 71.9369 110.046C72.693 113.302 73.9869 116.421 75.768 119.29C76.4057 120.315 76.393 121.608 75.743 122.621L71.4057 129.402L75.793 133.796L82.5742 129.452C83.593 128.802 84.8992 128.802 85.9057 129.427C88.768 131.202 91.8742 132.496 95.1492 133.271C96.3242 133.546 97.2307 134.465 97.4869 135.646L99.2057 143.502ZM102.312 124.758C90.2492 124.758 80.4369 114.946 80.4369 102.883C80.4369 90.8208 90.2492 81.0085 102.312 81.0085C114.374 81.0085 124.187 90.8208 124.187 102.883C124.187 104.608 122.787 106.008 121.062 106.008C119.337 106.008 117.937 104.608 117.937 102.883C117.937 94.2646 110.931 87.2585 102.312 87.2585C93.693 87.2585 86.6869 94.2646 86.6869 102.883C86.6869 111.502 93.693 118.508 102.312 118.508C104.037 118.508 105.437 119.908 105.437 121.633C105.437 123.358 104.037 124.758 102.312 124.758Z" fill="#1F1342"/>
<path d="M114.814 118.505C116.54 118.505 117.939 117.106 117.939 115.38C117.939 113.654 116.54 112.255 114.814 112.255C113.089 112.255 111.689 113.654 111.689 115.38C111.689 117.106 113.089 118.505 114.814 118.505Z" fill="#1F1342"/>
</svg>
