<svg width="200" height="200" viewBox="0 0 200 200" fill="none" xmlns="http://www.w3.org/2000/svg">
<g clip-path="url(#clip0_872_2922)">
<mask id="mask0_872_2922" style="mask-type:luminance" maskUnits="userSpaceOnUse" x="0" y="0" width="200" height="200">
<path d="M200 0H0V200H200V0Z" fill="white"/>
</mask>
<g mask="url(#mask0_872_2922)">
<path d="M184.637 2.03992L15.3395 2.03992C8.0003 2.03992 2.0293 8.01072 2.0293 15.3499L2.0293 184.648C2.0293 191.987 8.0003 197.958 15.3395 197.958H184.637C191.977 197.958 197.948 191.987 197.948 184.648V15.3499C197.948 8.01072 191.977 2.03992 184.637 2.03992ZM184.637 193.877H15.3395C10.2503 193.877 6.11092 189.737 6.11092 184.648L6.11092 41.3724H19.5685V37.2907H6.11092V15.3499C6.11092 10.2607 10.2503 6.12134 15.3395 6.12134L184.637 6.12134C189.727 6.12134 193.866 10.2607 193.866 15.3499V37.2907H31.11V41.3724H193.866V184.648C193.866 189.737 189.727 193.877 184.637 193.877Z" fill="#1F1342"/>
<path d="M18.3502 128.027H14.2686V139.172H18.3502V128.027Z" fill="#1F1342"/>
<path d="M18.3521 172.907V148.417H14.2705V172.907C14.2705 179.969 20.0152 185.714 27.0775 185.714H39.2097V181.632H27.0775C22.2664 181.632 18.3521 177.718 18.3521 172.907Z" fill="#1F1342"/>
<path d="M55.9516 181.63H45.0742V185.712H55.9516V181.63Z" fill="#1F1342"/>
<path d="M177.291 30.8887C182.355 30.8887 186.474 26.7691 186.474 21.705C186.474 16.6409 182.355 12.5214 177.291 12.5214C172.227 12.5214 168.107 16.6409 168.107 21.705C168.107 26.7691 172.227 30.8887 177.291 30.8887ZM177.291 16.603C180.104 16.603 182.393 18.892 182.393 21.705C182.393 24.5181 180.104 26.8071 177.291 26.8071C174.478 26.8071 172.189 24.5181 172.189 21.705C172.189 18.892 174.478 16.603 177.291 16.603ZM154.408 30.8887C159.472 30.8887 163.592 26.7691 163.592 21.705C163.592 16.6409 159.472 12.5214 154.408 12.5214C149.344 12.5214 145.225 16.6409 145.225 21.705C145.225 26.7691 149.344 30.8887 154.408 30.8887ZM154.408 16.603C157.221 16.603 159.51 18.892 159.51 21.705C159.51 24.5181 157.221 26.8071 154.408 26.8071C151.595 26.8071 149.306 24.5181 149.306 21.705C149.306 18.892 151.595 16.603 154.408 16.603ZM131.527 30.8887C136.591 30.8887 140.711 26.7691 140.711 21.705C140.711 16.6409 136.591 12.5214 131.527 12.5214C126.463 12.5214 122.343 16.6409 122.343 21.705C122.343 26.7691 126.463 30.8887 131.527 30.8887ZM131.527 16.603C134.34 16.603 136.629 18.892 136.629 21.705C136.629 24.5181 134.34 26.8071 131.527 26.8071C128.714 26.8071 126.425 24.5181 126.425 21.705C126.425 18.892 128.714 16.603 131.527 16.603ZM117.614 160.258L116.437 160.615L113.596 175.24H94.4761L91.635 160.615L90.4582 160.258C87.5303 159.371 84.6935 158.19 82.0259 156.75L80.9388 156.163L68.5682 164.513L55.042 150.988L63.3935 138.618L62.8067 137.53C61.3667 134.863 60.1858 132.026 59.297 129.097L58.9403 127.921L44.3158 125.08V105.96L58.9403 103.118L59.297 101.942C60.18 99.0319 61.3579 96.1919 62.7967 93.5025L63.3767 92.4181L55.042 80.0525L68.5682 66.5263L80.925 74.8631L82.012 74.276C84.6676 72.841 87.5097 71.661 90.4582 70.7675L91.6353 70.4107L94.4753 55.8001H113.596L116.437 70.4107L117.614 70.7675C120.56 71.6604 123.402 72.841 126.06 74.276L127.147 74.8631L139.504 66.5263L153.029 80.0516L144.692 92.4081L145.279 93.4951C146.714 96.1519 147.894 98.9937 148.788 101.942L149.145 103.118L163.755 105.96V125.08L149.145 127.921L148.788 129.098C147.912 131.989 146.73 134.833 145.275 137.551L148.875 139.477C150.257 136.893 151.413 134.202 152.321 131.462L167.837 128.445V102.596L152.321 99.5784C151.532 97.1898 150.57 94.871 149.448 92.6587L158.295 79.5457L140.01 61.261L126.897 70.1081C124.684 68.986 122.365 68.0225 119.978 67.2351L116.96 51.719H91.1111L88.095 67.2351C85.7053 68.0234 83.3864 68.986 81.1753 70.1081L68.0623 61.261L49.7767 79.5448L58.6276 92.6757C57.5056 94.9019 56.5458 97.2146 55.7647 99.5784L40.2344 102.596V128.445L55.7656 131.462C56.5508 133.838 57.5135 136.152 58.6385 138.368L49.7767 151.495L68.0623 169.779L81.1891 160.918C83.4053 162.045 85.7191 163.006 88.095 163.791L91.1111 179.322H116.96L119.978 163.791C122.73 162.882 125.416 161.73 127.978 160.359L126.053 156.76C123.362 158.2 120.522 159.377 117.614 160.258Z" fill="#1F1342"/>
<path d="M140.827 131.691C143.074 126.584 144.212 121.144 144.212 115.52C144.212 93.3633 126.186 75.3368 104.029 75.3368C81.8722 75.3368 63.8457 93.3633 63.8457 115.52C63.8457 137.677 81.8722 155.704 104.029 155.704C110.27 155.704 116.251 154.312 121.805 151.567L119.998 147.908C115.01 150.372 109.637 151.622 104.029 151.622C84.1222 151.622 67.9272 135.427 67.9272 115.52C67.9272 95.613 84.1222 79.4183 104.029 79.4183C123.936 79.4183 140.131 95.613 140.131 115.52C140.131 120.574 139.107 125.462 137.09 130.047L140.827 131.691Z" fill="#1F1342"/>
<path d="M127.143 122.927C129.983 114.344 128.02 104.504 121.204 97.6874C116.544 93.0277 110.356 90.4618 103.781 90.4618C100.468 90.4618 98.4592 91.085 95.503 91.5659L108.155 104.217L107.702 119.093L92.8342 119.54L80.1748 106.879C80.2013 108.249 75.2192 121.524 86.2954 132.596C93.0933 139.395 102.849 141.44 111.549 138.55L149.835 176.835C154.146 181.148 161.129 181.149 165.442 176.835C169.745 172.532 169.745 165.531 165.442 161.227L127.143 122.927ZM89.1813 129.71C85.4016 125.93 83.2801 120.874 83.1575 115.634L91.1942 123.673L111.664 123.057L112.288 102.579L104.258 94.5491C109.565 94.6688 114.541 96.7974 118.318 100.573C126.35 108.606 126.35 121.677 118.318 129.71C110.265 137.762 97.2339 137.762 89.1813 129.71ZM162.557 173.949C159.928 176.576 155.347 176.576 152.721 173.949L115.578 136.807C117.617 135.69 119.514 134.285 121.204 132.595C122.912 130.887 124.302 128.981 125.404 126.96L162.557 164.112C165.269 166.825 165.269 171.237 162.557 173.949Z" fill="#1F1342"/>
<path d="M156.672 171.593C158.631 171.593 160.219 170.005 160.219 168.046C160.219 166.087 158.631 164.499 156.672 164.499C154.713 164.499 153.125 166.087 153.125 168.046C153.125 170.005 154.713 171.593 156.672 171.593Z" fill="#1F1342"/>
<path d="M130.393 144.575L142.985 157.167L145.871 154.281L133.279 141.688L130.393 144.575Z" fill="#1F1342"/>
<path d="M128.277 136.708L125.391 139.594L127.835 142.039L130.721 139.153L128.277 136.708Z" fill="#1F1342"/>
<path d="M183.693 87.6298H179.611V145.971H183.693V87.6298Z" fill="#1F1342"/>
<path d="M183.693 71.2235H179.611V78.442H183.693V71.2235Z" fill="#1F1342"/>
<path d="M90.546 19.661H78.9277V23.7426H90.546V19.661Z" fill="#1F1342"/>
<path d="M71.2404 19.661H19.5527V23.7426H71.2404V19.661Z" fill="#1F1342"/>
</g>
</g>
<defs>
<clipPath id="clip0_872_2922">
<rect width="200" height="200" fill="white"/>
</clipPath>
</defs>
</svg>
